<svg width="30" height="28" viewBox="0 0 30 28" fill="none" xmlns="http://www.w3.org/2000/svg">
<path fill-rule="evenodd" clip-rule="evenodd" d="M20.9876 0.421818C22.9887 -0.76947 25.4998 0.703925 25.4998 3.07117V8.06783C26.0908 8.06783 26.676 8.1868 27.222 8.41796C27.768 8.64911 28.264 8.98791 28.6819 9.41502C29.0998 9.84213 29.4313 10.3492 29.6574 10.9072C29.8836 11.4653 30 12.0634 30 12.6674C30 13.2714 29.8836 13.8695 29.6574 14.4276C29.4313 14.9856 29.0998 15.4927 28.6819 15.9198C28.264 16.3469 27.768 16.6857 27.222 16.9169C26.676 17.148 26.0908 17.267 25.4998 17.267V21.8665C25.4998 24.3932 22.6782 25.836 20.6996 24.3196L17.6095 21.9493C15.9577 20.6835 14.0345 19.8383 11.9993 19.484V23.8444C11.9994 24.8467 11.6451 25.8153 11.0016 26.5716C10.3581 27.3279 9.46875 27.821 8.49756 27.9599C7.52637 28.0988 6.53879 27.8742 5.71685 27.3275C4.89491 26.7808 4.29402 25.9489 4.02496 24.985L1.66986 16.5586C0.822358 15.5357 0.270814 14.2914 0.077231 12.9656C-0.116352 11.6399 0.0557 10.2852 0.574047 9.05389C1.09239 7.82258 1.93649 6.76346 3.01144 5.99557C4.0864 5.22768 5.3496 4.78146 6.65906 4.70708L11.1862 4.44951C13.4013 4.32352 15.5554 3.66196 17.4715 2.51922L20.9876 0.421818ZM5.45002 18.9198L6.90957 24.1433C6.97982 24.3962 7.1372 24.6145 7.35265 24.758C7.56811 24.9015 7.82709 24.9605 8.08177 24.924C8.33645 24.8876 8.56963 24.7582 8.73825 24.5598C8.90687 24.3613 8.99954 24.1072 8.99916 23.8444V19.2295L6.65906 19.0961C6.25183 19.073 5.84731 19.014 5.45002 18.9198ZM26.9999 12.6674C26.9999 12.2608 26.8418 11.8708 26.5605 11.5833C26.2792 11.2957 25.8977 11.1342 25.4998 11.1342V14.2006C25.8977 14.2006 26.2792 14.0391 26.5605 13.7515C26.8418 13.464 26.9999 13.074 26.9999 12.6674Z" fill="#3D3D3D" fill-opacity="0.5"/>
</svg>
