<svg width="21" height="21" viewBox="0 0 21 21" fill="none" xmlns="http://www.w3.org/2000/svg">
<path fill-rule="evenodd" clip-rule="evenodd" d="M12.0168 19.1501H4.2918C3.60886 19.1501 2.9539 18.8788 2.471 18.3959C1.98809 17.913 1.7168 17.258 1.7168 16.5751V4.5584C1.7168 3.87547 1.98809 3.2205 2.471 2.7376C2.9539 2.25469 3.60886 1.9834 4.2918 1.9834H17.1668C17.8497 1.9834 18.5047 2.25469 18.9876 2.7376C19.4705 3.2205 19.7418 3.87547 19.7418 4.5584V16.5751C19.7418 17.258 19.4705 17.913 18.9876 18.3959C18.5047 18.8788 17.8497 19.1501 17.1668 19.1501H12.0168ZM4.43771 17.4334C4.3433 17.1647 4.2918 16.8755 4.2918 16.5751V4.5584C4.2918 4.25798 4.3433 3.96872 4.43771 3.70007H4.2918C4.06415 3.70007 3.84583 3.7905 3.68486 3.95147C3.5239 4.11243 3.43346 4.33075 3.43346 4.5584V16.5751C3.43346 16.8027 3.5239 17.021 3.68486 17.182C3.84583 17.343 4.06415 17.4334 4.2918 17.4334H4.43771ZM7.72513 7.14627C7.72491 7.03356 7.74688 6.9219 7.78981 6.81767C7.83274 6.71345 7.89577 6.6187 7.97532 6.53884C8.05486 6.45897 8.14936 6.39556 8.25341 6.35222C8.35746 6.30887 8.46903 6.28645 8.58175 6.28622L15.4484 6.27506C15.6761 6.27461 15.8946 6.3646 16.0559 6.52525C16.2171 6.6859 16.308 6.90404 16.3085 7.13168C16.3089 7.35933 16.2189 7.57783 16.0583 7.73912C15.8976 7.90041 15.6795 7.99128 15.4518 7.99173L8.58518 8.00289C8.47246 8.00312 8.3608 7.98114 8.25658 7.93821C8.15236 7.89528 8.05761 7.83225 7.97774 7.7527C7.89788 7.67316 7.83447 7.57866 7.79112 7.47461C7.74778 7.37056 7.72536 7.25899 7.72513 7.14627ZM7.72513 10.5899C7.7249 10.3624 7.815 10.1441 7.97562 9.98302C8.13624 9.82192 8.35425 9.73117 8.58175 9.73071L15.4484 9.71956C15.6761 9.7191 15.8946 9.8091 16.0559 9.96974C16.2171 10.1304 16.308 10.3485 16.3085 10.5762C16.3089 10.8038 16.2189 11.0223 16.0583 11.1836C15.8976 11.3449 15.6795 11.4358 15.4518 11.4362L8.58518 11.4474C8.47246 11.4476 8.3608 11.4256 8.25658 11.3827C8.15236 11.3398 8.05761 11.2767 7.97774 11.1972C7.89788 11.1177 7.83447 11.0232 7.79112 10.9191C7.74778 10.8151 7.72536 10.7026 7.72513 10.5899ZM7.72513 14.0232C7.7249 13.7957 7.815 13.5775 7.97562 13.4164C8.13624 13.2553 8.35425 13.1645 8.58175 13.164L15.4484 13.1529C15.6761 13.1524 15.8946 13.2424 16.0559 13.4031C16.2171 13.5637 16.308 13.7819 16.3085 14.0095C16.3089 14.2372 16.2189 14.4557 16.0583 14.6169C15.8976 14.7782 15.6795 14.8691 15.4518 14.8696L8.58518 14.8807C8.47246 14.8809 8.3608 14.859 8.25658 14.816C8.15236 14.7731 8.05761 14.7101 7.97774 14.6305C7.89788 14.551 7.83447 14.4565 7.79112 14.3524C7.74778 14.2484 7.72536 14.136 7.72513 14.0232Z" fill="white" fill-opacity="0.5"/>
</svg>
