<svg width="21" height="19" viewBox="0 0 21 19" fill="none" xmlns="http://www.w3.org/2000/svg">
<path d="M9.43979 14.8565C9.53938 14.9532 9.6184 15.0681 9.67232 15.1947C9.72623 15.3212 9.75399 15.4569 9.75399 15.5939C9.75399 15.7309 9.72623 15.8666 9.67232 15.9931C9.6184 16.1197 9.53938 16.2346 9.43979 16.3313L8.98401 16.7755C8.50019 17.2488 7.92489 17.6239 7.29139 17.8791C6.65789 18.1344 5.97875 18.2647 5.29325 18.2625C4.26092 18.2628 3.25169 17.9647 2.39323 17.406C1.53477 16.8472 0.865662 16.0528 0.47056 15.1233C0.075459 14.1938 -0.0278842 13.171 0.173605 12.1843C0.375094 11.1975 0.872362 10.2912 1.6025 9.57998L4.69593 6.5652C5.35391 5.92405 6.17577 5.46595 7.07642 5.23832C7.97708 5.01068 8.92379 5.02179 9.81856 5.2705C10.7133 5.5192 11.5236 5.99646 12.1656 6.65287C12.8075 7.30927 13.2578 8.12097 13.4697 9.00391C13.5048 9.13816 13.5121 9.27789 13.4911 9.41491C13.47 9.55192 13.4212 9.68347 13.3473 9.80185C13.2735 9.92023 13.1761 10.023 13.061 10.1043C12.9458 10.1855 12.8152 10.2435 12.6767 10.275C12.5383 10.3064 12.3948 10.3105 12.2547 10.2872C12.1146 10.2639 11.9806 10.2135 11.8607 10.1391C11.7408 10.0647 11.6374 9.96768 11.5564 9.8538C11.4755 9.73991 11.4187 9.61142 11.3893 9.47587C11.2636 8.95466 10.9972 8.47566 10.6179 8.08836C10.2385 7.70107 9.75992 7.41955 9.23153 7.2729C8.70315 7.12625 8.14417 7.1198 7.61236 7.25421C7.08056 7.38863 6.59525 7.65902 6.2066 8.03745L3.11316 11.0522C2.68196 11.4721 2.38821 12.0072 2.26906 12.5898C2.14992 13.1724 2.21073 13.7764 2.4438 14.3253C2.67687 14.8742 3.07174 15.3435 3.57847 15.6737C4.0852 16.0039 4.68102 16.1802 5.29058 16.1804C5.69561 16.1815 6.09685 16.1044 6.47106 15.9534C6.84528 15.8024 7.18504 15.5805 7.47068 15.3007L7.92557 14.8565C8.02483 14.7593 8.14281 14.6822 8.27274 14.6295C8.40267 14.5769 8.54198 14.5498 8.68268 14.5498C8.82338 14.5498 8.9627 14.5769 9.09263 14.6295C9.22255 14.6822 9.34054 14.7593 9.43979 14.8565ZM19.2008 2.40091C18.2217 1.44705 16.894 0.911194 15.5096 0.911194C14.1252 0.911194 12.7975 1.44705 11.8184 2.40091L11.3635 2.84424C11.1628 3.03981 11.0501 3.30508 11.0501 3.58166C11.0501 3.85825 11.1628 4.12351 11.3635 4.31909C11.5642 4.51467 11.8364 4.62454 12.1202 4.62454C12.404 4.62454 12.6762 4.51467 12.8768 4.31909L13.3326 3.8749C13.9111 3.31118 14.6956 2.99448 15.5136 2.99448C16.3316 2.99448 17.1162 3.31118 17.6946 3.8749C18.273 4.43862 18.598 5.2032 18.598 6.00042C18.598 6.79765 18.273 7.56222 17.6946 8.12594L14.5958 11.1364C14.3102 11.4162 13.9704 11.6381 13.5962 11.7891C13.222 11.9401 12.8207 12.0172 12.4157 12.0161C11.7209 12.0156 11.0467 11.7864 10.5023 11.3656C9.95791 10.9449 9.57535 10.3572 9.41665 9.69796C9.35243 9.42899 9.1812 9.19589 8.94064 9.04995C8.70007 8.90401 8.40987 8.85718 8.13387 8.91976C7.85788 8.98235 7.6187 9.14922 7.46895 9.38367C7.3192 9.61812 7.27115 9.90094 7.33537 10.1699C7.60341 11.2864 8.25058 12.2818 9.17193 12.9949C10.0933 13.7079 11.2348 14.0967 12.4113 14.0982H12.4157C13.1015 14.1001 13.7809 13.9694 14.4146 13.7137C15.0482 13.458 15.6236 13.0824 16.1074 12.6086L19.2008 9.59386C19.6855 9.1216 20.07 8.56091 20.3323 7.94382C20.5946 7.32674 20.7296 6.66533 20.7296 5.99739C20.7296 5.32944 20.5946 4.66803 20.3323 4.05095C20.07 3.43386 19.6855 2.87317 19.2008 2.40091Z" fill="#787878"/>
</svg>
