<svg width="24" height="24" viewBox="0 0 24 24" fill="none" xmlns="http://www.w3.org/2000/svg">
<path fill-rule="evenodd" clip-rule="evenodd" d="M7.25013 4.664C8.12013 3.367 9.62313 2 12.0001 2C14.3771 2 15.8801 3.367 16.7501 4.664C17.3248 5.53512 17.7427 6.49997 17.9851 7.515L19.5201 15.429C19.6043 15.8633 19.5914 16.3108 19.4824 16.7395C19.3734 17.1682 19.1709 17.5675 18.8894 17.9087C18.608 18.25 18.2546 18.5248 17.8545 18.7135C17.4544 18.9021 17.0175 19 16.5751 19H7.42513C6.98278 19 6.54591 18.9021 6.14581 18.7135C5.74571 18.5248 5.39228 18.25 5.11083 17.9087C4.82939 17.5675 4.6269 17.1682 4.51786 16.7395C4.40882 16.3108 4.39594 15.8633 4.48013 15.429L6.01513 7.515C6.25744 6.49962 6.6754 5.53543 7.25013 4.664Z" fill="black"/>
<path fill-rule="evenodd" clip-rule="evenodd" d="M8.51416 20C8.76616 20.48 9.15216 20.983 9.73716 21.367C10.3472 21.767 11.1132 22 12.0472 22C12.9802 22 13.7472 21.767 14.3572 21.367C14.9422 20.983 15.3272 20.481 15.5802 20H8.51416Z" fill="black"/>
<path fill-rule="evenodd" clip-rule="evenodd" d="M17.2932 2.293C17.1057 2.48053 17.0004 2.73484 17.0004 3C17.0004 3.26516 17.1057 3.51947 17.2932 3.707C18.1192 4.533 18.5552 5.343 19.0302 7.243C19.0962 7.4986 19.2606 7.71775 19.4875 7.85265C19.7144 7.98754 19.9854 8.02725 20.2415 7.9631C20.4976 7.89895 20.7179 7.73615 20.8544 7.51021C20.9909 7.28427 21.0325 7.01352 20.9702 6.757C20.4452 4.657 19.8802 3.467 18.7072 2.293C18.5197 2.10553 18.2654 2.00021 18.0002 2.00021C17.7351 2.00021 17.4807 2.10553 17.2932 2.293ZM6.70722 2.293C6.89469 2.48053 7.00001 2.73484 7.00001 3C7.00001 3.26516 6.89469 3.51947 6.70722 3.707C5.88122 4.533 5.44522 5.343 4.97022 7.243C4.90424 7.4986 4.73988 7.71775 4.51297 7.85265C4.28606 7.98754 4.01502 8.02725 3.75895 7.9631C3.50288 7.89895 3.28257 7.73615 3.14605 7.51021C3.00954 7.28427 2.9679 7.01352 3.03022 6.757C3.55522 4.657 4.12022 3.467 5.29322 2.293C5.48075 2.10553 5.73506 2.00021 6.00022 2.00021C6.26538 2.00021 6.51969 2.10553 6.70722 2.293Z" fill="black"/>
</svg>
