<svg width="29" height="29" viewBox="0 0 29 29" fill="none" xmlns="http://www.w3.org/2000/svg">
<path d="M19.0312 19.0312H23.5625V23.5625H19.0312V19.0312ZM15.4062 15.4062H19.0312V19.0312H15.4062V15.4062ZM23.5625 23.5625H27.1875V27.1875H23.5625V23.5625ZM24.4688 15.4062H27.1875V18.125H24.4688V15.4062ZM15.4062 24.4688H18.125V27.1875H15.4062V24.4688ZM19.0312 5.4375H23.5625V9.96875H19.0312V5.4375Z" fill="white"/>
<path d="M27.1875 13.5938H15.4062V1.8125H27.1875V13.5938ZM17.8984 11.1016H24.6953V4.30469H17.8984V11.1016ZM5.4375 5.4375H9.96875V9.96875H5.4375V5.4375Z" fill="white"/>
<path d="M13.5938 13.5938H1.8125V1.8125H13.5938V13.5938ZM4.30469 11.1016H11.1016V4.30469H4.30469V11.1016ZM5.4375 19.0312H9.96875V23.5625H5.4375V19.0312Z" fill="white"/>
<path d="M13.5938 27.1875H1.8125V15.4062H13.5938V27.1875ZM4.30469 24.6953H11.1016V17.8984H4.30469V24.6953Z" fill="white"/>
</svg>
