<svg width="30" height="23" viewBox="0 0 30 23" fill="none" xmlns="http://www.w3.org/2000/svg">
<path d="M14.6359 16.7273C16.9455 16.7273 18.8177 14.855 18.8177 12.5455C18.8177 10.2359 16.9455 8.36363 14.6359 8.36363C12.3264 8.36363 10.4541 10.2359 10.4541 12.5455C10.4541 14.855 12.3264 16.7273 14.6359 16.7273Z" fill="black"/>
<path d="M27.7045 4.18182H22.2813C22.0852 4.18182 21.8422 4.05506 21.6527 3.85511L19.8702 1.05852C19.1449 -2.49256e-07 18.8182 0 17.642 0H11.6307C10.4545 0 10.0625 0 9.40452 1.05918L7.62006 3.85511C7.475 4.01324 7.27114 4.18182 7.05682 4.18182V3.13636C7.05682 2.99773 7.00175 2.86477 6.90372 2.76674C6.80569 2.66871 6.67273 2.61364 6.53409 2.61364H3.92045C3.78182 2.61364 3.64886 2.66871 3.55083 2.76674C3.4528 2.86477 3.39773 2.99773 3.39773 3.13636V4.18182H1.56818C1.15227 4.18182 0.753401 4.34704 0.45931 4.64113C0.165219 4.93522 0 5.33409 0 5.75V21.4318C0 21.8477 0.165219 22.2466 0.45931 22.5407C0.753401 22.8348 1.15227 23 1.56818 23H27.7045C28.1205 23 28.5193 22.8348 28.8134 22.5407C29.1075 22.2466 29.2727 21.8477 29.2727 21.4318V5.75C29.2727 5.33409 29.1075 4.93522 28.8134 4.64113C28.5193 4.34704 28.1205 4.18182 27.7045 4.18182ZM14.9311 18.8116C13.6667 18.871 12.414 18.5465 11.3375 17.8808C10.261 17.2151 9.4111 16.2393 8.89942 15.0816C8.38774 13.9239 8.23826 12.6386 8.4706 11.3944C8.70295 10.1501 9.30626 9.00534 10.2013 8.11034C11.0962 7.21535 12.2411 6.61204 13.4853 6.37969C14.7295 6.14735 16.0149 6.29684 17.1725 6.80851C18.3302 7.32019 19.306 8.17011 19.9717 9.24661C20.6375 10.3231 20.9619 11.5758 20.9026 12.8401C20.8277 14.3997 20.1745 15.8755 19.0704 16.9795C17.9664 18.0836 16.4906 18.7368 14.9311 18.8116Z" fill="black"/>
</svg>
