<svg width="275" height="142" viewBox="0 0 275 142" fill="none" xmlns="http://www.w3.org/2000/svg">
<mask id="mask0_459_171" style="mask-type:luminance" maskUnits="userSpaceOnUse" x="0" y="0" width="275" height="142">
<path d="M0.0390625 0.555328H274.359V141.897H0.0390625V0.555328Z" fill="white"/>
</mask>
<g mask="url(#mask0_459_171)">
<mask id="mask1_459_171" style="mask-type:luminance" maskUnits="userSpaceOnUse" x="-56" y="-14" width="331" height="156">
<path d="M213.404 -13.4567H-46.0856C-48.9753 -13.4567 -51.6904 -12.061 -53.3806 -9.71655C-55.0708 -7.37213 -55.5288 -4.35163 -54.6128 -1.61465L-10.723 130.055C-8.36765 137.132 -1.74874 141.897 5.6989 141.897H265.189C268.078 141.897 270.793 140.512 272.484 138.168C274.174 135.823 274.643 132.803 273.727 130.055L229.837 -1.61465C227.482 -8.68064 220.863 -13.4567 213.404 -13.4567Z" fill="white"/>
</mask>
<g mask="url(#mask1_459_171)">
<path d="M-58.5605 -13.4567H277.63V141.897H-58.5605V-13.4567Z" fill="#423D3D"/>
</g>
</g>
</svg>
