<svg width="24" height="25" viewBox="0 0 24 25" fill="none" xmlns="http://www.w3.org/2000/svg">
<path d="M20 9.32501H11C9.89543 9.32501 9 10.2204 9 11.325V20.325C9 21.4296 9.89543 22.325 11 22.325H20C21.1046 22.325 22 21.4296 22 20.325V11.325C22 10.2204 21.1046 9.32501 20 9.32501Z" stroke="#020202" stroke-width="2" stroke-linecap="round" stroke-linejoin="round"/>
<path d="M5 15.325H4C3.46957 15.325 2.96086 15.1143 2.58579 14.7392C2.21071 14.3642 2 13.8554 2 13.325V4.32501C2 3.79458 2.21071 3.28587 2.58579 2.9108C2.96086 2.53573 3.46957 2.32501 4 2.32501H13C13.5304 2.32501 14.0391 2.53573 14.4142 2.9108C14.7893 3.28587 15 3.79458 15 4.32501V5.32501" stroke="#020202" stroke-width="2" stroke-linecap="round" stroke-linejoin="round"/>
</svg>
