<svg width="18" height="18" viewBox="0 0 18 18" fill="none" xmlns="http://www.w3.org/2000/svg">
<path fill-rule="evenodd" clip-rule="evenodd" d="M11.8957 17.3501C12.9712 17.3501 13.8939 17.2934 14.6656 17.1226C15.4467 16.9484 16.123 16.6462 16.6518 16.1184C17.1796 15.5896 17.4818 14.9133 17.656 14.1322C17.8277 13.3605 17.8835 12.4378 17.8835 11.3623V8.76674C17.8835 8.31145 17.7026 7.87481 17.3807 7.55288C17.0587 7.23094 16.6221 7.05008 16.1668 7.05008H9.30013C8.84484 7.05008 8.4082 7.23094 8.08626 7.55288C7.76433 7.87481 7.58346 8.31145 7.58346 8.76674V15.6334C7.58346 16.0887 7.76433 16.5253 8.08626 16.8473C8.4082 17.1692 8.84484 17.3501 9.30013 17.3501H11.8957ZM0.716797 11.3623C0.716797 12.4378 0.773447 13.3605 0.945114 14.1322C1.1185 14.9133 1.42063 15.5896 1.94936 16.1184C2.47724 16.6462 3.15361 16.9484 3.93469 17.1226C4.00936 17.1389 4.0849 17.1544 4.16043 17.169C5.09086 17.3492 5.8668 16.5613 5.8668 15.6128V8.76674C5.8668 8.31145 5.68593 7.87481 5.364 7.55288C5.04206 7.23094 4.60542 7.05008 4.15013 7.05008H2.43346C1.97818 7.05008 1.54153 7.23094 1.2196 7.55288C0.897659 7.87481 0.716797 8.31145 0.716797 8.76674V11.3623ZM6.70453 0.183411C5.62904 0.183411 4.70633 0.240061 3.93469 0.411727C3.15361 0.585111 2.47724 0.887244 1.94851 1.41598C1.42063 1.94385 1.1185 2.62022 0.944255 3.4013C0.930522 3.46568 0.916789 3.53005 0.904772 3.59443C0.72023 4.53774 1.52277 5.33341 2.48411 5.33341H16.1462C17.0947 5.33341 17.8826 4.55748 17.7024 3.62704C17.6876 3.55159 17.6719 3.47633 17.6551 3.4013C17.4818 2.62022 17.1796 1.94385 16.6509 1.41512C16.123 0.887244 15.4467 0.585111 14.6656 0.410869C13.8939 0.239202 12.9712 0.183411 11.8957 0.183411H6.70453Z" fill="white" fill-opacity="0.5"/>
</svg>
