<svg width="8" height="28" viewBox="0 0 8 28" fill="none" xmlns="http://www.w3.org/2000/svg">
<path d="M7.11272 3.315C7.11285 3.72381 7.03246 4.12864 6.87614 4.50637C6.71982 4.88411 6.49062 5.22736 6.20165 5.51652C5.91267 5.80568 5.56957 6.03509 5.19194 6.19166C4.8143 6.34822 4.40952 6.42887 4.00072 6.429C3.59191 6.42913 3.18709 6.34874 2.80935 6.19242C2.43161 6.0361 2.08836 5.80691 1.7992 5.51793C1.51004 5.22896 1.28063 4.88586 1.12407 4.50822C0.967501 4.13058 0.88685 3.72581 0.886719 3.317C0.886454 2.49138 1.21418 1.69948 1.79779 1.11549C2.3814 0.531499 3.1731 0.203268 3.99872 0.203003C4.82434 0.202738 5.61625 0.530459 6.20024 1.11407C6.78422 1.69769 7.11245 2.48938 7.11272 3.315Z" fill="black"/>
<path d="M4.00067 17.111C5.71938 17.111 7.11267 15.7177 7.11267 13.999C7.11267 12.2803 5.71938 10.887 4.00067 10.887C2.28196 10.887 0.888672 12.2803 0.888672 13.999C0.888672 15.7177 2.28196 17.111 4.00067 17.111Z" fill="black"/>
<path d="M4.00067 27.797C5.71938 27.797 7.11267 26.4037 7.11267 24.685C7.11267 22.9663 5.71938 21.573 4.00067 21.573C2.28196 21.573 0.888672 22.9663 0.888672 24.685C0.888672 26.4037 2.28196 27.797 4.00067 27.797Z" fill="black"/>
</svg>
