<svg width="38" height="38" viewBox="0 0 38 38" fill="none" xmlns="http://www.w3.org/2000/svg">
<path d="M38 19.3935C38 9.01801 29.4933 0.606934 19 0.606934C8.50666 0.606934 0 9.01801 0 19.3935C0 28.7703 6.94806 36.5425 16.0312 37.9518V24.8239H11.207V19.3935H16.0312V15.2546C16.0312 10.5462 18.8679 7.94542 23.2079 7.94542C25.2866 7.94542 27.4609 8.31235 27.4609 8.31235V12.9356H25.0652C22.7049 12.9356 21.9688 14.3838 21.9688 15.8695V19.3935H27.2383L26.3959 24.8239H21.9688V37.9518C31.0519 36.5425 38 28.7704 38 19.3935Z" fill="#1877F2"/>
<path d="M26.4442 24.6384L27.2931 19.2252H21.9829V15.7126C21.9829 14.2314 22.7247 12.788 25.1032 12.788H27.5175V8.17953C27.5175 8.17953 25.3264 7.81378 23.2315 7.81378C18.8581 7.81378 15.9996 10.4062 15.9996 15.0996V19.2252H11.1382V24.6384H15.9996V37.7242C16.9893 37.8759 17.9895 37.952 18.9913 37.9517C19.993 37.952 20.9933 37.8759 21.9829 37.7242V24.6384H26.4442Z" fill="white"/>
</svg>
