<svg width="30" height="30" viewBox="0 0 30 30" fill="none" xmlns="http://www.w3.org/2000/svg">
<path d="M27.6381 0H1.614C0.722611 0 0 0.722611 0 1.614V27.6381C0 28.5295 0.722611 29.2521 1.614 29.2521H27.6381C28.5295 29.2521 29.2521 28.5295 29.2521 27.6381V1.614C29.2521 0.722611 28.5295 0 27.6381 0Z" fill="#3D5A98"/>
<path d="M20.0689 29.2521V17.712H23.798L24.3557 13.2148H20.0689V10.3442C20.0689 9.04238 20.418 8.15351 22.2147 8.15351H24.5085V4.12465C23.3977 4.00465 22.2815 3.94749 21.1648 3.95342C17.8624 3.95342 15.588 6.04339 15.588 9.89851V13.2148H11.8589V17.712H15.588V29.2521H20.0689Z" fill="white"/>
</svg>
