<svg width="512" height="512" viewBox="0 0 512 512" fill="none" xmlns="http://www.w3.org/2000/svg">
<path d="M512 169L477.395 213.651H142.139C137.178 213.155 127.107 214.693 126.511 224.814C125.916 234.935 136.682 237.465 142.139 237.465H239.256C253.023 237.465 301.767 234.86 304.372 288.07C306.456 330.637 261.829 341.775 239.256 342.023H69.209L103.442 298.116H236.651C242.48 298.736 254.139 297 254.139 285.093C254.139 273.186 242.48 270.705 236.651 270.954H138.046C104.558 269.465 75.9067 261.651 75.9067 218.86C75.9067 180.684 116.341 169.744 138.046 169H512Z" fill="#153860"/>
<path d="M395.163 234.489L364.279 272.07H453.582V298.117H395.163C328.484 299.01 332.155 256.07 342.326 234.489H286.884C325.879 251.754 319.256 296.504 311.07 316.721C337.861 336.07 364.899 340.659 375.07 340.535H506.047V234.489H395.163Z" fill="#7E7E7E"/>
<path d="M0 169.373H53.2093V184.628L0 232.256V169.373Z" fill="#7E7E7E"/>
<path d="M0 342.023V256.07L52.8372 207.698V342.023H0Z" fill="#153860"/>
</svg>
