<svg width="29" height="28" viewBox="0 0 29 28" fill="none" xmlns="http://www.w3.org/2000/svg">
<g clip-path="url(#clip0_291_260)">
<path opacity="0.5" d="M14.4989 28C6.49168 28 0 21.7314 0 13.9996C0 6.26857 6.49245 0 14.4989 0C22.5083 0 28.9992 6.26857 28.9992 13.9996C29 21.7329 22.5083 28 14.4989 28Z" fill="#337CCC"/>
<path d="M12.2908 22.4627H15.8208V13.929H18.2834L18.5455 11.0717H15.8208C15.8208 11.0717 15.8208 10.005 15.8208 9.44368C15.8208 8.76982 15.961 8.50424 16.6361 8.50424C17.1778 8.50424 18.5455 8.50424 18.5455 8.50424V5.53806C18.5455 5.53806 16.5317 5.53806 16.102 5.53806C13.4756 5.53806 12.2908 6.65552 12.2908 8.79262C12.2908 10.6546 12.2908 11.071 12.2908 11.071H10.4561V13.9651H12.2908V22.4627Z" fill="white"/>
</g>
<defs>
<clipPath id="clip0_291_260">
<rect width="29" height="28" fill="white"/>
</clipPath>
</defs>
</svg>
