<svg width="31" height="31" viewBox="0 0 31 31" fill="none" xmlns="http://www.w3.org/2000/svg">
<path d="M15.5 0C6.95433 0 0 6.95433 0 15.5C0 24.0457 6.95433 31 15.5 31C24.0457 31 31 24.0457 31 15.5C31 6.95433 24.0457 0 15.5 0ZM15.5 2.58333C22.6494 2.58333 28.4167 8.35063 28.4167 15.5C28.4198 18.5922 27.311 21.5824 25.2926 23.925C23.2741 26.2676 20.4807 27.8063 17.422 28.2604V19.2665H21.1007L21.678 15.5297H17.422V13.4889C17.422 11.9389 17.9322 10.5607 19.3827 10.5607H21.7142V7.3005C21.3048 7.24496 20.438 7.12483 18.8002 7.12483C15.3799 7.12483 13.3752 8.93058 13.3752 13.0458V15.5297H9.85929V19.2665H13.3752V28.2281C10.3588 27.7316 7.61726 26.1788 5.64031 23.8472C3.66336 21.5156 2.57983 18.5569 2.58333 15.5C2.58333 8.35063 8.35063 2.58333 15.5 2.58333Z" fill="#153860"/>
</svg>
