<svg width="29" height="30" viewBox="0 0 29 30" fill="none" xmlns="http://www.w3.org/2000/svg">
<path d="M9.88915 1.42115C7.01196 2.41927 4.53066 4.31375 2.80974 6.82631C1.08882 9.33887 0.218973 12.3371 0.327973 15.3805C0.436974 18.424 1.51907 21.3523 3.41533 23.7353C5.31159 26.1183 7.92205 27.8304 10.8633 28.6202C13.2478 29.2355 15.7461 29.2625 18.1433 28.6989C20.315 28.2111 22.3228 27.1677 23.9701 25.6708C25.6846 24.0653 26.929 22.0228 27.5696 19.763C28.266 17.3056 28.3899 14.7213 27.9318 12.2085H14.5416V17.7631H22.2963C22.1413 18.649 21.8092 19.4945 21.3198 20.2491C20.8304 21.0036 20.1939 21.6517 19.4482 22.1545C18.5012 22.7809 17.4338 23.2023 16.3143 23.3918C15.1916 23.6006 14.04 23.6006 12.9173 23.3918C11.7793 23.1566 10.7029 22.6869 9.75642 22.0128C8.23595 20.9365 7.09428 19.4074 6.49434 17.6438C5.88425 15.8472 5.88425 13.8994 6.49434 12.1028C6.92139 10.8434 7.62737 9.69679 8.55957 8.74846C9.62637 7.64328 10.977 6.85329 12.4632 6.46517C13.9494 6.07705 15.5138 6.10579 16.9847 6.54824C18.1338 6.90097 19.1846 7.51727 20.0534 8.34801C20.9277 7.47812 21.8006 6.60598 22.672 5.73159C23.122 5.2614 23.6124 4.81371 24.0556 4.33227C22.7295 3.09825 21.173 2.13803 19.4752 1.50663C16.3834 0.384005 13.0005 0.353835 9.88915 1.42115Z" fill="white"/>
<path d="M9.88909 1.4212C13.0001 0.353166 16.3831 0.382541 19.4751 1.50444C21.1732 2.14013 22.7291 3.10497 24.0533 4.34358C23.6033 4.82502 23.1286 5.27496 22.6697 5.7429C21.7968 6.61429 20.9247 7.48268 20.0533 8.34806C19.1846 7.51733 18.1338 6.90103 16.9847 6.54829C15.5142 6.10429 13.9499 6.07389 12.4633 6.46043C10.9766 6.84696 9.62522 7.63549 8.55726 8.73951C7.62505 9.68785 6.91908 10.8345 6.49202 12.0938L1.82837 8.48305C3.49767 5.17273 6.38797 2.6406 9.88909 1.4212Z" fill="#E33629"/>
<path d="M0.59097 12.06C0.841635 10.8177 1.25779 9.61464 1.82831 8.48297L6.49196 12.1028C5.88188 13.8994 5.88188 15.8472 6.49196 17.6438C4.93816 18.8436 3.38361 20.0495 1.82831 21.2613C0.400083 18.4184 -0.0355017 15.1792 0.59097 12.06Z" fill="#F8BD00"/>
<path d="M14.5418 12.2063H27.9321C28.3901 14.7191 28.2662 17.3034 27.5699 19.7608C26.9292 22.0206 25.6848 24.0631 23.9703 25.6686C22.4653 24.4942 20.9535 23.3289 19.4484 22.1545C20.1946 21.6512 20.8314 21.0024 21.3209 20.2471C21.8103 19.4917 22.1421 18.6453 22.2965 17.7586H14.5418C14.5395 15.9093 14.5418 14.0578 14.5418 12.2063Z" fill="#587DBD"/>
<path d="M1.82617 21.2614C3.38147 20.0616 4.93602 18.8557 6.48982 17.6439C7.09096 19.4081 8.23426 20.9372 9.75641 22.0128C10.7058 22.6838 11.7846 23.1496 12.924 23.3806C14.0467 23.5894 15.1983 23.5894 16.3211 23.3806C17.4405 23.1911 18.508 22.7697 19.4549 22.1433C20.96 23.3176 22.4718 24.483 23.9768 25.6573C22.3298 27.155 20.322 28.1992 18.1501 28.6877C15.7528 29.2513 13.2545 29.2242 10.87 28.609C8.98409 28.1054 7.2225 27.2177 5.69568 26.0015C4.07962 24.7185 2.7597 23.1016 1.82617 21.2614Z" fill="#319F43"/>
</svg>
