<svg width="81" height="81" viewBox="0 0 81 81" fill="none" xmlns="http://www.w3.org/2000/svg">
<path d="M47.25 43.875H64.125V37.125H47.25V43.875ZM47.25 33.75H64.125V27H47.25V33.75ZM16.875 54H43.875V52.1437C43.875 49.6125 42.6375 47.6021 40.1625 46.1126C37.6875 44.6231 34.425 43.8773 30.375 43.875C26.325 43.8727 23.0625 44.6186 20.5875 46.1126C18.1125 47.6066 16.875 49.617 16.875 52.1437V54ZM30.375 40.5C32.2313 40.5 33.8209 39.8396 35.1439 38.5189C36.4669 37.1981 37.1273 35.6085 37.125 33.75C37.1227 31.8915 36.4624 30.303 35.1439 28.9845C33.8254 27.666 32.2358 27.0045 30.375 27C28.5142 26.9955 26.9257 27.657 25.6095 28.9845C24.2932 30.312 23.6318 31.9005 23.625 33.75C23.6182 35.5995 24.2797 37.1891 25.6095 38.5189C26.9392 39.8486 28.5278 40.509 30.375 40.5ZM13.5 67.5C11.6438 67.5 10.0553 66.8396 8.7345 65.5189C7.41375 64.1981 6.75225 62.6085 6.75 60.75V20.25C6.75 18.3938 7.4115 16.8052 8.7345 15.4845C10.0575 14.1637 11.646 13.5022 13.5 13.5H67.5C69.3563 13.5 70.9459 14.1615 72.2689 15.4845C73.5919 16.8075 74.2523 18.396 74.25 20.25V60.75C74.25 62.6063 73.5896 64.1959 72.2689 65.5189C70.9481 66.8419 69.3585 67.5023 67.5 67.5H13.5ZM13.5 60.75H67.5V20.25H13.5V60.75Z" fill="black"/>
</svg>
