<svg width="29" height="28" viewBox="0 0 29 28" fill="none" xmlns="http://www.w3.org/2000/svg">
<g clip-path="url(#clip0_291_263)">
<path d="M14.5004 28C6.49168 28 0 21.7314 0 13.9996C0 6.26857 6.49245 0 14.5004 0C22.5083 0 28.9992 6.26857 28.9992 13.9996C29.0015 21.7329 22.5083 28 14.5004 28Z" fill="#EF8995"/>
<path d="M14.5004 7.70754C16.6224 7.70754 16.8738 7.71563 17.7119 7.75241C18.4876 7.78625 18.9082 7.91131 19.1893 8.01651C19.5596 8.15482 19.8248 8.32181 20.1029 8.59033C20.381 8.85811 20.5524 9.11486 20.6964 9.47239C20.8054 9.74311 20.9357 10.1492 20.97 10.8981C21.0088 11.7081 21.0164 11.9501 21.0164 14.0004C21.0164 16.0492 21.0088 16.292 20.97 17.1012C20.9342 17.8516 20.8046 18.2562 20.6964 18.5276C20.5532 18.8852 20.381 19.1412 20.1029 19.4097C19.8248 19.6782 19.5596 19.8452 19.1893 19.9828C18.9097 20.0894 18.4868 20.2138 17.7119 20.2469C16.8738 20.2844 16.6224 20.2918 14.5004 20.2918C12.3769 20.2918 12.1254 20.2844 11.2873 20.2469C10.5101 20.2138 10.0911 20.0887 9.80991 19.9828C9.43961 19.8445 9.17445 19.6767 8.89635 19.4097C8.61977 19.1412 8.44528 18.8852 8.3028 18.5276C8.19232 18.2577 8.06355 17.8508 8.02927 17.1012C7.99041 16.292 7.98279 16.0492 7.98279 14.0004C7.98279 11.9494 7.99041 11.7073 8.02927 10.8981C8.06508 10.1485 8.19461 9.74311 8.3028 9.47239C8.44605 9.11486 8.61977 8.85885 8.89635 8.59033C9.17445 8.32181 9.43961 8.15482 9.80991 8.01651C10.0895 7.91058 10.5109 7.78625 11.2873 7.75241C12.1254 7.71489 12.3769 7.70754 14.5004 7.70754ZM14.5004 6.32449C12.3411 6.32449 12.0706 6.33332 11.2218 6.37084C10.3753 6.40836 9.79772 6.53931 9.29179 6.72764C8.76758 6.92406 8.32414 7.18595 7.88374 7.61264C7.44182 8.03932 7.16904 8.46747 6.96713 8.97287C6.76903 9.46135 6.63493 10.019 6.59683 10.8363C6.55797 11.6551 6.54883 11.9163 6.54883 14.0011C6.54883 16.0845 6.55797 16.3471 6.59683 17.1652C6.63569 17.9833 6.77131 18.5401 6.96713 19.0286C7.1698 19.5348 7.44182 19.9629 7.88374 20.3896C8.32414 20.8163 8.76758 21.0796 9.29179 21.2746C9.79772 21.4644 10.3753 21.5953 11.2218 21.6307C12.0683 21.6682 12.3411 21.677 14.5004 21.677C16.6582 21.677 16.9294 21.6682 17.7775 21.6307C18.624 21.5931 19.2015 21.4637 19.7074 21.2746C20.2301 21.0774 20.6736 20.8163 21.1155 20.3896C21.5574 19.9629 21.8302 19.5348 22.0336 19.0286C22.2302 18.5401 22.3643 17.9825 22.4024 17.1652C22.4405 16.3479 22.4504 16.086 22.4504 14.0011C22.4504 11.9163 22.4413 11.6551 22.4024 10.8363C22.3635 10.019 22.2279 9.46135 22.0336 8.97287C21.8294 8.46747 21.5574 8.03932 21.1155 7.61264C20.6736 7.18595 20.2301 6.92259 19.7074 6.72764C19.2015 6.53784 18.624 6.40689 17.7775 6.37084C16.931 6.33259 16.6582 6.32449 14.5004 6.32449Z" fill="white"/>
<path d="M14.5002 10.0594C12.2441 10.0594 10.417 11.8236 10.417 14.0011C10.417 16.1779 12.2441 17.9421 14.5002 17.9421C16.7548 17.9421 18.5819 16.1779 18.5819 14.0011C18.5826 11.8236 16.7548 10.0594 14.5002 10.0594ZM14.5002 16.5598C13.0358 16.5598 11.8487 15.4129 11.8487 14.0004C11.8487 12.5872 13.0365 11.441 14.5002 11.441C15.9631 11.441 17.1494 12.5864 17.1494 14.0004C17.1494 15.4136 15.9631 16.5598 14.5002 16.5598Z" fill="white"/>
<path d="M19.6989 9.90274C19.6989 10.4111 19.2699 10.8238 18.745 10.8238C18.2185 10.8238 17.791 10.4111 17.791 9.90274C17.791 9.39513 18.2185 8.98169 18.745 8.98169C19.2699 8.98169 19.6989 9.3944 19.6989 9.90274Z" fill="white"/>
</g>
<defs>
<clipPath id="clip0_291_263">
<rect width="29" height="28" fill="white"/>
</clipPath>
</defs>
</svg>
