<svg width="38" height="38" viewBox="0 0 38 38" fill="none" xmlns="http://www.w3.org/2000/svg">
<path d="M28.7928 0H8.81412C3.94621 0 0 3.94621 0 8.81412V28.7928C0 33.6607 3.94621 37.6069 8.81412 37.6069H28.7928C33.6607 37.6069 37.6069 33.6607 37.6069 28.7928V8.81412C37.6069 3.94621 33.6607 0 28.7928 0Z" fill="url(#paint0_radial_378_844)"/>
<path d="M28.7928 0H8.81412C3.94621 0 0 3.94621 0 8.81412V28.7928C0 33.6607 3.94621 37.6069 8.81412 37.6069H28.7928C33.6607 37.6069 37.6069 33.6607 37.6069 28.7928V8.81412C37.6069 3.94621 33.6607 0 28.7928 0Z" fill="url(#paint1_radial_378_844)"/>
<path d="M18.8038 4.11322C14.8143 4.11322 14.3135 4.1307 12.7466 4.20195C11.1827 4.27364 10.1152 4.52117 9.18116 4.88446C8.21483 5.25964 7.39527 5.76161 6.57879 6.57838C5.76157 7.39501 5.25961 8.21458 4.88325 9.18046C4.51893 10.1148 4.27111 11.1827 4.20074 12.7459C4.13067 14.3129 4.1123 14.8139 4.1123 18.8036C4.1123 22.7933 4.12993 23.2924 4.20103 24.8593C4.27302 26.4232 4.52055 27.4908 4.88354 28.4248C5.25902 29.3911 5.76099 30.2106 6.57776 31.0271C7.39409 31.8443 8.21366 32.3475 9.17925 32.7227C10.114 33.086 11.1817 33.3335 12.7453 33.4052C14.3123 33.4764 14.8126 33.4939 18.8021 33.4939C22.7921 33.4939 23.2912 33.4764 24.8581 33.4052C26.422 33.3335 27.4907 33.086 28.4255 32.7227C29.3913 32.3475 30.2097 31.8443 31.0259 31.0271C31.8431 30.2106 32.3449 29.3911 32.7215 28.4252C33.0825 27.4908 33.3305 26.4229 33.404 24.8596C33.4743 23.2927 33.4927 22.7933 33.4927 18.8036C33.4927 14.8139 33.4743 14.3132 33.404 12.7462C33.3305 11.1823 33.0825 10.1149 32.7215 9.1809C32.3449 8.21458 31.8431 7.39501 31.0259 6.57838C30.2088 5.76131 29.3916 5.25935 28.4246 4.8846C27.4881 4.52117 26.4199 4.27349 24.856 4.20195C23.289 4.1307 22.7901 4.11322 18.7993 4.11322H18.8038ZM17.486 6.76054C17.8772 6.75995 18.3136 6.76054 18.8038 6.76054C22.7262 6.76054 23.191 6.77464 24.74 6.84501C26.1723 6.91053 26.9497 7.14983 27.4675 7.35094C28.1531 7.61713 28.6418 7.93546 29.1557 8.44977C29.6699 8.96392 29.9881 9.45355 30.255 10.1391C30.4561 10.6562 30.6957 11.4336 30.7609 12.8659C30.8313 14.4146 30.8465 14.8797 30.8465 18.8002C30.8465 22.7207 30.8313 23.1859 30.7609 24.7344C30.6954 26.1667 30.4561 26.9441 30.255 27.4614C29.9888 28.147 29.6699 28.6351 29.1557 29.149C28.6415 29.6631 28.1534 29.9813 27.4675 30.2477C26.9503 30.4497 26.1723 30.6884 24.74 30.7539C23.1913 30.8243 22.7262 30.8395 18.8038 30.8395C14.8812 30.8395 14.4163 30.8243 12.8678 30.7539C11.4355 30.6878 10.6581 30.4485 10.1398 30.2474C9.45439 29.981 8.96462 29.6628 8.45047 29.1487C7.93631 28.6345 7.61812 28.1461 7.3512 27.4602C7.15009 26.943 6.91049 26.1656 6.84527 24.7333C6.7749 23.1846 6.7608 22.7195 6.7608 18.7965C6.7608 14.8736 6.7749 14.4109 6.84527 12.8623C6.91079 11.43 7.15009 10.6526 7.3512 10.1347C7.61753 9.44914 7.93631 8.95952 8.45061 8.44536C8.96477 7.9312 9.45439 7.61286 10.14 7.34609C10.6578 7.1441 11.4355 6.90539 12.8678 6.83957C14.223 6.77831 14.7482 6.75995 17.486 6.75687V6.76054ZM26.6454 9.1997C25.6722 9.1997 24.8826 9.98856 24.8826 10.9619C24.8826 11.9352 25.6722 12.7248 26.6454 12.7248C27.6187 12.7248 28.4083 11.9352 28.4083 10.9619C28.4083 9.98871 27.6187 9.19911 26.6454 9.19911V9.1997ZM18.8038 11.2594C14.6377 11.2594 11.2598 14.6373 11.2598 18.8036C11.2598 22.9698 14.6377 26.3461 18.8038 26.3461C22.9701 26.3461 26.3468 22.9698 26.3468 18.8036C26.3468 14.6374 22.9698 11.2594 18.8035 11.2594H18.8038ZM18.8038 13.9067C21.5081 13.9067 23.7006 16.099 23.7006 18.8036C23.7006 21.5079 21.5081 23.7004 18.8038 23.7004C16.0994 23.7004 13.9071 21.5079 13.9071 18.8036C13.9071 16.099 16.0994 13.9067 18.8038 13.9067Z" fill="white"/>
<defs>
<radialGradient id="paint0_radial_378_844" cx="0" cy="0" r="1" gradientUnits="userSpaceOnUse" gradientTransform="translate(9.98933 40.5034) rotate(-90) scale(37.2712 34.6652)">
<stop stop-color="#FFDD55"/>
<stop offset="0.1" stop-color="#FFDD55"/>
<stop offset="0.5" stop-color="#FF543E"/>
<stop offset="1" stop-color="#C837AB"/>
</radialGradient>
<radialGradient id="paint1_radial_378_844" cx="0" cy="0" r="1" gradientUnits="userSpaceOnUse" gradientTransform="translate(-6.2993 2.70902) rotate(78.681) scale(16.6604 68.6749)">
<stop stop-color="#3771C8"/>
<stop offset="0.128" stop-color="#3771C8"/>
<stop offset="1" stop-color="#6600FF" stop-opacity="0"/>
</radialGradient>
</defs>
</svg>
