<svg width="36" height="36" viewBox="0 0 36 36" fill="none" xmlns="http://www.w3.org/2000/svg">
<path d="M17.9998 25.1111C19.8858 25.1111 21.6945 24.3619 23.0281 23.0283C24.3617 21.6948 25.1109 19.886 25.1109 18C25.1109 16.114 24.3617 14.3053 23.0281 12.9717C21.6945 11.6381 19.8858 10.8889 17.9998 10.8889C16.1138 10.8889 14.3051 11.6381 12.9715 12.9717C11.6379 14.3053 10.8887 16.114 10.8887 18C10.8887 19.886 11.6379 21.6948 12.9715 23.0283C14.3051 24.3619 16.1138 25.1111 17.9998 25.1111Z" stroke="black" stroke-width="2.5" stroke-linecap="round" stroke-linejoin="round"/>
<path d="M2 25.1111V10.8889C2 8.53141 2.93651 6.27049 4.6035 4.6035C6.27049 2.93651 8.53141 2 10.8889 2H25.1111C27.4686 2 29.7295 2.93651 31.3965 4.6035C33.0635 6.27049 34 8.53141 34 10.8889V25.1111C34 27.4686 33.0635 29.7295 31.3965 31.3965C29.7295 33.0635 27.4686 34 25.1111 34H10.8889C8.53141 34 6.27049 33.0635 4.6035 31.3965C2.93651 29.7295 2 27.4686 2 25.1111Z" stroke="black" stroke-width="2.5"/>
<path d="M27.7773 8.24001L27.7951 8.22046" stroke="black" stroke-width="2.5" stroke-linecap="round" stroke-linejoin="round"/>
</svg>
