<svg width="142" height="48" viewBox="0 0 142 48" fill="none" xmlns="http://www.w3.org/2000/svg">
<path d="M141.479 0L131.967 12.2727H39.8202C38.4566 12.1363 35.6885 12.559 35.5248 15.3408C35.3612 18.1226 38.3203 18.8181 39.8202 18.8181H66.5133C70.2974 18.8181 83.695 18.1022 84.4109 32.7271C84.9836 44.427 72.7178 47.4884 66.5133 47.5566H19.7749L29.1839 35.4884H65.7974C67.3996 35.6589 70.6042 35.1816 70.6042 31.9089C70.6042 28.6362 67.3996 27.9544 65.7974 28.0226H38.6953C29.4908 27.6135 21.6158 25.4658 21.6158 13.7045C21.6158 3.21137 32.7294 0.204544 38.6953 0H141.479Z" fill="#153860"/>
<path d="M109.365 17.9999L100.877 28.3294H125.422V35.4884H109.365C91.038 35.7339 92.0471 23.9317 94.8426 17.9999H79.604C90.3221 22.7453 88.5017 35.0453 86.2517 40.6021C93.6153 45.9202 101.047 47.1816 103.843 47.1475H139.842V17.9999H109.365Z" fill="#7E7E7E"/>
<path d="M0.752197 0.102264H15.3771V4.29542L0.752197 17.3863V0.102264Z" fill="#7E7E7E"/>
<path d="M0.752197 47.5565V23.9317L15.2748 10.6363V47.5565H0.752197Z" fill="#153860"/>
</svg>
