<svg width="28" height="28" viewBox="0 0 28 28" fill="none" xmlns="http://www.w3.org/2000/svg">
<g clip-path="url(#clip0_291_253)">
<path d="M13.9996 28C6.26783 28 0 21.7329 0 13.9996C0 6.26857 6.26857 0 13.9996 0C21.7314 0 27.9993 6.26857 27.9993 13.9996C28 21.7329 21.7307 28 13.9996 28Z" fill="#AEB9F4"/>
<path d="M10.5484 10.8789H7.65137V20.2395H10.5484V10.8789Z" fill="white"/>
<path d="M9.0864 9.65333C10.0327 9.65333 10.7998 8.87998 10.7998 7.926C10.7998 6.97202 10.0327 6.19867 9.0864 6.19867C8.14014 6.19867 7.37305 6.97202 7.37305 7.926C7.37305 8.87998 8.14014 9.65333 9.0864 9.65333Z" fill="white"/>
<path d="M15.1809 15.326C15.1809 14.0099 15.7856 13.2264 16.9458 13.2264C18.011 13.2264 18.5238 13.9798 18.5238 15.326C18.5238 16.6752 18.5238 20.2402 18.5238 20.2402H21.4083C21.4083 20.2402 21.4083 16.8209 21.4083 14.313C21.4083 11.8059 19.9863 10.5935 18.0022 10.5935C16.0166 10.5935 15.1809 12.1413 15.1809 12.1413V10.8797H12.4023V20.2402H15.1809C15.1809 20.2402 15.1809 16.7679 15.1809 15.326Z" fill="white"/>
</g>
<defs>
<clipPath id="clip0_291_253">
<rect width="28" height="28" fill="white"/>
</clipPath>
</defs>
</svg>
