<svg width="34" height="29" viewBox="0 0 34 29" fill="none" xmlns="http://www.w3.org/2000/svg">
<path d="M15.4172 23.3073C15.5811 23.469 15.7112 23.661 15.7999 23.8725C15.8886 24.084 15.9343 24.3108 15.9343 24.5398C15.9343 24.7688 15.8886 24.9956 15.7999 25.2071C15.7112 25.4186 15.5811 25.6106 15.4172 25.7723L14.667 26.5147C13.8706 27.3057 12.9237 27.9326 11.8809 28.3592C10.8382 28.7858 9.72036 29.0036 8.59204 29C6.89284 29.0005 5.23166 28.5023 3.81865 27.5683C2.40564 26.6344 1.30431 25.3067 0.653979 23.7532C0.00364888 22.1998 -0.166452 20.4903 0.165195 18.8411C0.496843 17.192 1.31534 15.6772 2.51713 14.4885L7.60886 9.44977C8.69188 8.37819 10.0446 7.61255 11.5271 7.23209C13.0096 6.85164 14.5678 6.87021 16.0406 7.28588C17.5134 7.70155 18.8471 8.49921 19.9037 9.59629C20.9604 10.6934 21.7015 12.05 22.0503 13.5257C22.1081 13.7501 22.1201 13.9836 22.0855 14.2126C22.0509 14.4416 21.9705 14.6615 21.8489 14.8593C21.7273 15.0572 21.5671 15.229 21.3776 15.3648C21.188 15.5006 20.973 15.5975 20.7451 15.65C20.5172 15.7025 20.2811 15.7095 20.0504 15.6705C19.8198 15.6315 19.5993 15.5473 19.402 15.423C19.2046 15.2986 19.0343 15.1365 18.9011 14.9461C18.7679 14.7558 18.6744 14.541 18.6261 14.3145C18.419 13.4434 17.9807 12.6428 17.3563 11.9955C16.7319 11.3482 15.9441 10.8777 15.0744 10.6326C14.2047 10.3875 13.2846 10.3767 12.4093 10.6013C11.5339 10.826 10.7351 11.2779 10.0954 11.9104L5.00365 16.9491C4.2939 17.6509 3.81039 18.5452 3.61428 19.5189C3.41817 20.4927 3.51826 21.5021 3.90189 22.4195C4.28553 23.337 4.93548 24.1212 5.76954 24.6731C6.6036 25.225 7.58431 25.5197 8.58765 25.52C9.25431 25.5219 9.91474 25.393 10.5307 25.1406C11.1466 24.8882 11.7059 24.5174 12.176 24.0497L12.9248 23.3073C13.0882 23.1449 13.2824 23.016 13.4962 22.928C13.7101 22.8401 13.9394 22.7948 14.171 22.7948C14.4026 22.7948 14.6319 22.8401 14.8457 22.928C15.0596 23.016 15.2538 23.1449 15.4172 23.3073ZM31.4836 2.48983C29.8721 0.89559 27.6867 0 25.408 0C23.1293 0 20.9439 0.89559 19.3323 2.48983L18.5836 3.23077C18.2533 3.55765 18.0677 4.00099 18.0677 4.46326C18.0677 4.92554 18.2533 5.36887 18.5836 5.69575C18.9139 6.02263 19.3619 6.20626 19.829 6.20626C20.2962 6.20626 20.7442 6.02263 21.0745 5.69575L21.8247 4.95336C22.7768 4.01118 24.0681 3.48188 25.4146 3.48188C26.761 3.48188 28.0523 4.01118 29.0044 4.95336C29.9565 5.89553 30.4914 7.17339 30.4914 8.50583C30.4914 9.83826 29.9565 11.1161 29.0044 12.0583L23.9039 17.0898C23.4337 17.5575 22.8745 17.9283 22.2585 18.1807C21.6426 18.433 20.9822 18.562 20.3155 18.56C19.1719 18.5592 18.062 18.1762 17.166 17.4729C16.27 16.7696 15.6403 15.7875 15.3791 14.6857C15.2734 14.2361 14.9915 13.8465 14.5956 13.6026C14.1996 13.3587 13.7219 13.2804 13.2677 13.385C12.8134 13.4896 12.4197 13.7685 12.1732 14.1604C11.9267 14.5522 11.8476 15.0249 11.9533 15.4745C12.3945 17.3404 13.4598 19.0042 14.9763 20.1959C16.4928 21.3876 18.3716 22.0375 20.3082 22.04H20.3155C21.4443 22.0431 22.5626 21.8246 23.6056 21.3973C24.6486 20.9699 25.5956 20.3422 26.3919 19.5504L31.4836 14.5117C32.2814 13.7224 32.9142 12.7853 33.346 11.7539C33.7778 10.7225 34 9.61712 34 8.50075C34 7.38439 33.7778 6.27896 33.346 5.24759C32.9142 4.21623 32.2814 3.27913 31.4836 2.48983Z" fill="#2867B2"/>
</svg>
