<svg width="22" height="21" viewBox="0 0 22 21" fill="none" xmlns="http://www.w3.org/2000/svg">
<path fill-rule="evenodd" clip-rule="evenodd" d="M15.3185 12.6683C15.1622 12.8301 15.0757 13.047 15.0776 13.272C15.0796 13.4971 15.1699 13.7124 15.329 13.8715C15.4881 14.0306 15.7034 14.1209 15.9285 14.1229C16.1535 14.1248 16.3703 14.0383 16.5322 13.8819L19.0326 11.3816L19.0703 11.3421C19.1613 11.2618 19.2342 11.1629 19.2841 11.0523C19.334 10.9416 19.3599 10.8215 19.3599 10.7001C19.3599 10.5787 19.334 10.4586 19.2841 10.348C19.2342 10.2373 19.1613 10.1385 19.0703 10.0581C19.0581 10.0446 19.0455 10.0314 19.0326 10.0186L16.5322 7.51826C16.4531 7.43629 16.3583 7.37089 16.2536 7.32591C16.1489 7.28093 16.0363 7.25725 15.9223 7.25626C15.8083 7.25527 15.6953 7.27699 15.5898 7.32014C15.4843 7.3633 15.3885 7.42703 15.3079 7.50763C15.2273 7.58822 15.1636 7.68405 15.1204 7.78954C15.0773 7.89502 15.0556 8.00805 15.0565 8.12202C15.0575 8.23599 15.0812 8.34862 15.1262 8.45334C15.1712 8.55806 15.2366 8.65277 15.3185 8.73195L16.4284 9.84177H11.6337C11.4061 9.84177 11.1878 9.9322 11.0268 10.0932C10.8658 10.2541 10.7754 10.4725 10.7754 10.7001C10.7754 10.9278 10.8658 11.1461 11.0268 11.307C11.1878 11.468 11.4061 11.5584 11.6337 11.5584H16.4284L15.3185 12.6683Z" fill="white" fill-opacity="0.75"/>
<path fill-rule="evenodd" clip-rule="evenodd" d="M4.76641 2.1167C4.08347 2.1167 3.42851 2.38799 2.94561 2.8709C2.4627 3.35381 2.19141 4.00877 2.19141 4.6917V16.7084C2.19141 17.3913 2.4627 18.0463 2.94561 18.5292C3.42851 19.0121 4.08347 19.2834 4.76641 19.2834H12.9206C13.4897 19.2834 14.0355 19.0573 14.4379 18.6549C14.8403 18.2524 15.0664 17.7066 15.0664 17.1375V14.7625C14.6721 14.5347 14.3844 14.1597 14.2664 13.7198C14.1484 13.28 14.2099 12.8113 14.4372 12.4167H11.6331C11.1778 12.4167 10.7411 12.2358 10.4192 11.9139C10.0973 11.592 9.91641 11.1553 9.91641 10.7C9.91641 10.2447 10.0973 9.8081 10.4192 9.48617C10.7411 9.16423 11.1778 8.98337 11.6331 8.98337H14.4372C14.3244 8.78805 14.2512 8.57242 14.2218 8.34879C14.1924 8.12516 14.2073 7.89793 14.2657 7.68007C14.3241 7.46222 14.4249 7.25801 14.5623 7.07913C14.6997 6.90025 14.871 6.75019 15.0664 6.63754V4.26253C15.0664 3.69342 14.8403 3.14762 14.4379 2.7452C14.0355 2.34278 13.4897 2.1167 12.9206 2.1167H4.76641Z" fill="white" fill-opacity="0.75"/>
</svg>
