<svg width="22" height="19" viewBox="0 0 22 19" fill="none" xmlns="http://www.w3.org/2000/svg">
<path d="M20.2632 15.6471C20.7092 15.6473 21.1381 15.8131 21.4609 16.1102C21.7837 16.4073 21.9757 16.8129 21.9971 17.243C22.0186 17.673 21.8678 18.0945 21.576 18.4202C21.2842 18.7458 20.8739 18.9506 20.4299 18.9922L20.2632 19H1.73684C1.2908 18.9998 0.861943 18.8339 0.539131 18.5368C0.21632 18.2397 0.0243019 17.8341 0.00286664 17.4041C-0.0185686 16.9741 0.132222 16.5525 0.423993 16.2269C0.715763 15.9012 1.12615 15.6964 1.57011 15.6549L1.73684 15.6471H20.2632ZM20.2632 7.82353C20.7238 7.82353 21.1656 8.00016 21.4913 8.31456C21.817 8.62895 22 9.05537 22 9.5C22 9.94463 21.817 10.371 21.4913 10.6854C21.1656 10.9998 20.7238 11.1765 20.2632 11.1765H1.73684C1.2762 11.1765 0.83443 10.9998 0.508709 10.6854C0.182988 10.371 0 9.94463 0 9.5C0 9.05537 0.182988 8.62895 0.508709 8.31456C0.83443 8.00016 1.2762 7.82353 1.73684 7.82353H20.2632ZM20.2632 0C20.7238 0 21.1656 0.176628 21.4913 0.491027C21.817 0.805426 22 1.23184 22 1.67647C22 2.1211 21.817 2.54752 21.4913 2.86191C21.1656 3.17631 20.7238 3.35294 20.2632 3.35294H1.73684C1.2762 3.35294 0.83443 3.17631 0.508709 2.86191C0.182988 2.54752 0 2.1211 0 1.67647C0 1.23184 0.182988 0.805426 0.508709 0.491027C0.83443 0.176628 1.2762 0 1.73684 0H20.2632Z" fill="#153860"/>
</svg>
