<svg width="19" height="19" viewBox="0 0 19 19" fill="none" xmlns="http://www.w3.org/2000/svg">
<path d="M9.0888 0.0849304C10.2941 0.0849304 11.4499 0.563714 12.3022 1.41595C13.1544 2.2682 13.6332 3.42408 13.6332 4.62933C13.6332 5.83458 13.1544 6.99047 12.3022 7.84271C11.4499 8.69495 10.2941 9.17373 9.0888 9.17373C7.88355 9.17373 6.72767 8.69495 5.87543 7.84271C5.02319 6.99047 4.5444 5.83458 4.5444 4.62933C4.5444 3.42408 5.02319 2.2682 5.87543 1.41595C6.72767 0.563714 7.88355 0.0849304 9.0888 0.0849304ZM9.0888 11.4459C14.1104 11.4459 18.1776 13.4796 18.1776 15.9903V18.2625H0V15.9903C0 13.4796 4.06724 11.4459 9.0888 11.4459Z" fill="#2A6BB6"/>
</svg>
