<svg width="266" height="158" viewBox="0 0 266 158" fill="none" xmlns="http://www.w3.org/2000/svg">
<path d="M98.381 157.763C66.6904 154.99 38.7014 143.224 20.4966 125.001C10.1063 114.622 3.80711 103.355 0.971407 90.072C-0.327388 84.0266 -0.327388 74.0159 0.993053 67.9055C4.95438 49.4443 16.86 33.3015 35.6276 20.9724C78.4229 -7.1095 143.99 -6.9795 186.396 21.2974C192.024 25.046 195.661 28.0362 200.769 33.0632C207.198 39.4119 211.722 45.739 216.485 55.013C216.658 55.3597 217.545 55.793 218.433 55.9664C221.442 56.5947 225.446 58.9349 228.672 61.9468C231.183 64.2869 233.109 66.8438 237.893 74.0809C242.72 81.3831 264.54 115.099 265.861 117.309C266.38 118.176 265.363 119.541 264.215 119.541C263.393 119.541 262.83 118.999 261.618 117.092C260.774 115.749 255.21 107.103 249.258 97.8725C228.196 65.2403 227.07 63.7235 221.204 60.7767L218.13 59.2382H209.082C200.033 59.2382 200.033 59.2383 199.817 60.1916C198.626 65.4137 198.388 66.6921 198.648 66.9304C198.821 67.0821 203.951 70.0073 210.056 73.4309L221.16 79.6496L220.468 81.1014C220.078 81.9031 219.645 82.5531 219.494 82.5531C219.342 82.5531 209.991 77.3745 198.713 71.0257C187.435 64.6986 177.543 59.3249 176.742 59.1082C173.538 58.2198 168.602 61.7734 168.602 64.9803C168.602 68.2305 169.555 69.1622 189.383 85.4133C201.743 95.554 208.822 101.643 209.904 103.073C211.874 105.695 213.865 109.552 215.684 114.297C218.909 122.661 224.148 127.319 232.741 129.486L235.577 130.201L235.339 131.74C235.209 132.585 235.036 133.365 234.928 133.473C234.56 133.885 228.867 132.065 225.576 130.483C220.424 128.013 216.874 124.481 213.389 118.327C213.368 118.284 211.333 118.977 208.908 119.866C204.579 121.447 204.363 121.577 200.271 125.586C182.803 142.66 157.736 153.56 127.496 157.265C122.539 157.958 103.619 158.24 98.381 157.763ZM128.491 152.519C142.367 150.678 153.147 147.926 164.403 143.311C176.222 138.457 187.392 131.501 195.184 124.091L198.258 121.166L190.509 117.46C182.24 113.495 181.417 112.845 180.357 109.313C179.686 107.081 180.443 104.698 182.565 102.423L184.21 100.624L180.616 97.8942C177.781 95.7273 176.893 94.7956 176.33 93.3655C175.443 91.047 175.768 88.5335 177.196 86.5184L178.279 84.98L166.936 82.9865C160.701 81.8814 154.879 80.7764 154.013 80.5163C152.303 80.018 150.593 78.0678 150.138 76.1827C149.9 75.1643 155.463 47.9925 156.697 44.1139C157.26 42.3805 159.619 40.2787 161.416 39.9536C163.299 39.6069 196.721 45.479 198.388 46.4541C201.029 47.9925 201.852 50.4627 201.029 54.2762L200.683 55.858H202.523C203.54 55.858 205.943 55.728 207.869 55.5763L211.376 55.2947L209.644 52.0661C204.428 42.3371 194.925 32.4998 183.214 24.6993C177.737 21.059 166.07 15.2953 159.035 12.7818C149.034 9.20658 136.934 6.51974 125.309 5.30632C118.924 4.63461 102.234 4.65628 96.0432 5.32799C81.2153 6.93143 67.7511 10.29 55.9754 15.317C28.7007 26.9528 10.366 46.2374 5.66871 68.2088C4.43486 73.9509 4.34827 84.0049 5.47389 89.2269C7.96325 100.776 13.3749 110.765 22.1851 120.061C40.1517 138.999 67.5996 150.656 100.502 153.278C104.918 153.625 124.011 153.104 128.491 152.519ZM122.495 131.848C120.807 131.35 119.075 129.335 118.707 127.406C118.469 126.149 118.75 125.283 120.547 121.794C127.82 107.71 130.981 94.7523 130.981 79.0429C130.981 63.8536 128.188 52.0228 121.24 37.8518C119.746 34.8183 118.534 31.9798 118.534 31.5681C118.534 30.0513 119.789 27.8628 121.153 27.0178C123.015 25.8477 126.154 26.0644 127.669 27.4728C128.253 28.0145 129.747 30.4847 131.002 32.9548C135.981 42.7271 139.38 53.4529 141.068 64.6119C142.107 71.5241 142.324 84.6116 141.479 90.9387C139.942 102.596 136.869 113.019 131.933 123.203C128.946 129.356 127.084 131.891 125.526 131.891C125.223 131.891 124.703 131.978 124.4 132.065C124.097 132.151 123.231 132.065 122.495 131.848ZM102.256 121.252C99.6581 120.494 97.7749 117.287 98.5325 114.904C98.7057 114.319 99.9395 111.653 101.26 108.967C106.823 97.5908 109.139 85.4133 108.014 73.4525C107.083 63.6152 105.33 57.4181 100.892 48.3609C97.9264 42.2721 97.7749 41.3404 99.5066 38.8702C101.152 36.5301 105.265 36.1617 107.408 38.1335C108.901 39.4986 113.555 49.2276 115.352 54.7313C121.283 72.9325 120.374 92.4988 112.776 110.375C108.858 119.541 106.109 122.379 102.256 121.252ZM81.3884 110.505C79.7866 109.79 78.4012 108.078 78.0116 106.366C77.7735 105.326 78.1847 104.156 80.0896 100.299C87.1031 86.085 87.1681 72.4125 80.3278 58.5232C77.3189 52.4345 77.2539 51.2211 79.7866 48.8159C81.0421 47.6241 81.5833 47.4291 83.3366 47.4291C86.3022 47.4291 87.8391 48.9242 90.48 54.3629C94.5496 62.7268 96.2163 69.9856 96.1947 79.2812C96.173 88.8369 94.6145 95.4023 90.2852 104.221C87.7958 109.27 86.562 110.613 84.0726 110.938C83.315 111.003 82.1028 110.83 81.3884 110.505ZM61.9065 100.494C60.6294 99.9743 59.1791 98.2408 58.7461 96.7241C58.2699 95.034 58.6595 93.6905 60.5644 90.5487C63.0321 86.4967 63.595 84.3299 63.595 79.0429C63.595 73.7559 63.0321 71.5674 60.5644 67.5371C59.7202 66.172 58.8976 64.5253 58.7028 63.8752C57.9019 61.21 60.1315 57.9382 63.1187 57.3748C65.6514 56.8981 67.3831 58.0248 69.7209 61.6651C76.453 72.1958 76.453 86.2367 69.7209 96.6807C67.3398 100.343 64.6989 101.643 61.9065 100.494ZM207.004 116.832C209.255 116.03 211.203 115.272 211.333 115.142C211.463 115.012 211.03 113.582 210.359 111.935C209.017 108.577 209.233 108.663 204.428 109.573C199.254 110.57 196.245 109.682 190.574 105.5C189.037 104.351 187.435 103.42 187.045 103.42C186.634 103.42 185.768 104.005 185.076 104.741C183.625 106.301 183.409 108.728 184.578 110.18C185.617 111.437 199.839 118.219 201.527 118.262C202.285 118.284 204.731 117.634 207.004 116.832ZM204.752 105.933C206.852 105.5 207.09 105.37 206.722 104.676C206.311 103.918 186.634 87.5801 184.924 86.5617C183.517 85.7383 182.37 85.9334 181.201 87.1901C177.781 90.852 178.192 91.6321 187.045 98.4142C197.739 106.626 198.886 107.103 204.752 105.933ZM178.343 81.1664C178.343 81.058 176.114 79.1296 173.386 76.8978C166.654 71.3507 165.204 69.2706 165.204 65.1536C165.204 61.7301 167.499 58.4149 171.178 56.5081C172.997 55.5547 176.265 55.273 178.105 55.8797C179.404 56.3131 185.292 59.4983 193.431 64.1786L195.141 65.1753L196.548 58.4582C197.999 51.5894 198.02 49.7693 196.678 49.3576C196.267 49.2276 188.409 47.7975 179.231 46.1724C162.909 43.2905 161.113 43.1172 160.355 44.3523C159.944 45.0023 153.731 73.8209 153.731 75.0343C153.731 75.641 154.034 76.3994 154.424 76.7244C154.792 77.0494 160.095 78.1978 166.2 79.2812C177.975 81.4047 178.343 81.4697 178.343 81.1664Z" fill="black"/>
</svg>
