<svg width="23" height="24" viewBox="0 0 23 24" fill="none" xmlns="http://www.w3.org/2000/svg">
<path fill-rule="evenodd" clip-rule="evenodd" d="M6.94689 5.33642C7.78064 4.09346 9.22101 2.78342 11.499 2.78342C13.7769 2.78342 15.2173 4.09346 16.0511 5.33642C16.6017 6.17124 17.0023 7.09589 17.2346 8.06863L18.7056 15.6529C18.7863 16.069 18.774 16.4979 18.6695 16.9088C18.565 17.3196 18.3709 17.7022 18.1012 18.0293C17.8315 18.3563 17.4928 18.6197 17.1094 18.8005C16.7259 18.9813 16.3073 19.0751 15.8833 19.0751H7.11459C6.69067 19.0751 6.272 18.9813 5.88857 18.8005C5.50514 18.6197 5.16644 18.3563 4.89672 18.0293C4.627 17.7022 4.43295 17.3196 4.32846 16.9088C4.22396 16.4979 4.21162 16.069 4.2923 15.6529L5.76334 8.06863C5.99556 7.09556 6.3961 6.17154 6.94689 5.33642Z" fill="white" fill-opacity="1"/>
<path fill-rule="evenodd" clip-rule="evenodd" d="M8.15869 20.0334C8.40019 20.4934 8.77011 20.9755 9.33073 21.3435C9.91532 21.7268 10.6494 21.9501 11.5445 21.9501C12.4386 21.9501 13.1736 21.7268 13.7582 21.3435C14.3189 20.9755 14.6878 20.4944 14.9303 20.0334H8.15869Z" fill="white" fill-opacity="1"/>
<path fill-rule="evenodd" clip-rule="evenodd" d="M16.5732 3.06416C16.3936 3.24387 16.2927 3.48758 16.2927 3.7417C16.2927 3.99581 16.3936 4.23953 16.5732 4.41924C17.3648 5.21082 17.7827 5.98707 18.2379 7.80791C18.3011 8.05286 18.4586 8.26287 18.6761 8.39215C18.8935 8.52143 19.1533 8.55947 19.3987 8.498C19.6441 8.43652 19.8552 8.28051 19.986 8.06398C20.1168 7.84746 20.1568 7.58799 20.097 7.34216C19.5939 5.32966 19.0525 4.18924 17.9283 3.06416C17.7486 2.8845 17.5049 2.78357 17.2508 2.78357C16.9967 2.78357 16.753 2.8845 16.5732 3.06416ZM6.42832 3.06416C6.60798 3.24387 6.70891 3.48758 6.70891 3.7417C6.70891 3.99581 6.60798 4.23953 6.42832 4.41924C5.63674 5.21082 5.21891 5.98707 4.7637 7.80791C4.70047 8.05286 4.54295 8.26287 4.3255 8.39215C4.10804 8.52143 3.84829 8.55947 3.6029 8.498C3.3575 8.43652 3.14637 8.28051 3.01554 8.06398C2.88471 7.84746 2.84481 7.58799 2.90453 7.34216C3.40766 5.32966 3.94911 4.18924 5.07324 3.06416C5.25295 2.8845 5.49667 2.78357 5.75078 2.78357C6.0049 2.78357 6.24861 2.8845 6.42832 3.06416Z" fill="white" fill-opacity="1"/>
</svg>
