<svg width="57" height="57" viewBox="0 0 57 57" fill="none" xmlns="http://www.w3.org/2000/svg">
<rect width="57" height="57" rx="4" fill="#A1EEAC" fill-opacity="0.5"/>
<path fill-rule="evenodd" clip-rule="evenodd" d="M21.1667 19.3333C21.1667 17.3884 21.9393 15.5231 23.3146 14.1479C24.6898 12.7726 26.5551 12 28.5 12C30.4449 12 32.3102 12.7726 33.6854 14.1479C35.0607 15.5231 35.8333 17.3884 35.8333 19.3333C35.8333 21.2783 35.0607 23.1435 33.6854 24.5188C32.3102 25.8941 30.4449 26.6667 28.5 26.6667C26.5551 26.6667 24.6898 25.8941 23.3146 24.5188C21.9393 23.1435 21.1667 21.2783 21.1667 19.3333ZM21.1667 30.3333C18.7355 30.3333 16.4039 31.2991 14.6849 33.0182C12.9658 34.7373 12 37.0688 12 39.5C12 40.9587 12.5795 42.3576 13.6109 43.3891C14.6424 44.4205 16.0413 45 17.5 45H39.5C40.9587 45 42.3576 44.4205 43.3891 43.3891C44.4205 42.3576 45 40.9587 45 39.5C45 37.0688 44.0342 34.7373 42.3151 33.0182C40.5961 31.2991 38.2645 30.3333 35.8333 30.3333H21.1667Z" fill="#8ACE94"/>
</svg>
