<svg width="17" height="18" viewBox="0 0 17 18" fill="none" xmlns="http://www.w3.org/2000/svg">
<path fill-rule="evenodd" clip-rule="evenodd" d="M0.355083 1.53293H7.10165C7.29777 1.53293 7.45673 1.6919 7.45673 1.88801V8.63458C7.45673 8.8307 7.29777 8.98967 7.10165 8.98967H0.355083C0.158966 8.98967 0 8.8307 0 8.63458V1.88801C0 1.6919 0.158966 1.53293 0.355083 1.53293ZM12.8787 0.970725L16.896 4.98804C17.0347 5.1267 17.0347 5.35151 16.896 5.49019L12.8787 9.50749C12.74 9.64615 12.5152 9.64615 12.3765 9.50749L8.35924 5.49017C8.22058 5.35151 8.22058 5.1267 8.35924 4.98802L12.3766 0.970725C12.5152 0.832065 12.74 0.832065 12.8787 0.970725ZM0.355083 10.41H7.10165C7.29777 10.41 7.45673 10.569 7.45673 10.7651V17.5116C7.45673 17.7078 7.29777 17.8667 7.10165 17.8667H0.355083C0.158966 17.8667 0 17.7078 0 17.5116V10.7651C0 10.569 0.158966 10.41 0.355083 10.41ZM9.23215 10.41H15.9787C16.1748 10.41 16.3338 10.569 16.3338 10.7651V17.5116C16.3338 17.7078 16.1748 17.8667 15.9787 17.8667H9.23215C9.03603 17.8667 8.87706 17.7078 8.87706 17.5116V10.7651C8.87706 10.569 9.03603 10.41 9.23215 10.41Z" fill="white" fill-opacity="0.5"/>
</svg>
