<svg width="52" height="52" viewBox="0 0 52 52" fill="none" xmlns="http://www.w3.org/2000/svg">
<path d="M36.374 39C37.1302 39 37.7563 38.7508 38.2525 38.2525C38.7487 37.7542 38.9978 37.128 39 36.374V15.626C39 14.872 38.7508 14.2458 38.2525 13.7475C37.7542 13.2492 37.128 13 36.374 13H27.625C26.7128 13 25.9437 13.3142 25.3175 13.9425C24.6892 14.5687 24.375 15.3378 24.375 16.25V22.9775C23.8767 23.2375 23.439 23.6102 23.062 24.0955C22.6872 24.5787 22.4997 25.2135 22.4997 26C22.4997 26.9967 22.8237 27.8287 23.4715 28.496C24.1215 29.1655 24.9643 29.5002 26 29.5002C26.9122 29.5002 27.7236 29.1655 28.4342 28.496C29.1449 27.8265 29.5002 26.9945 29.5002 26C29.5002 25.2135 29.3063 24.5787 28.9185 24.0955C28.5307 23.6102 28.0995 23.2364 27.625 22.9742V16.25H35.75V35.75H16.25V16.25H17.875C18.3387 16.25 18.7254 16.0951 19.0352 15.7852C19.3451 15.4754 19.5 15.0887 19.5 14.625C19.5 14.1613 19.3451 13.7746 19.0352 13.4647C18.7254 13.1549 18.3387 13 17.875 13H15.626C14.872 13 14.2458 13.2492 13.7475 13.7475C13.2492 14.2458 13 14.872 13 15.626V36.374C13 37.1302 13.2492 37.7563 13.7475 38.2525C14.2458 38.7487 14.872 38.9978 15.626 39H36.374ZM5.252 52C3.75483 52 2.50575 51.4995 1.50475 50.4985C0.503749 49.4975 0.00216667 48.2473 0 46.748V5.252C0 3.75483 0.501583 2.50575 1.50475 1.50475C2.50792 0.503749 3.757 0.00216667 5.252 0H46.7512C48.2462 0 49.4953 0.501583 50.4985 1.50475C51.5017 2.50792 52.0022 3.757 52 5.252V46.7512C52 48.2462 51.4995 49.4953 50.4985 50.4985C49.4975 51.5017 48.2473 52.0022 46.748 52H5.252ZM5.252 48.75H46.7512C47.2496 48.75 47.7078 48.542 48.126 48.126C48.5442 47.71 48.7522 47.2507 48.75 46.748V5.252C48.75 4.7515 48.542 4.29217 48.126 3.874C47.71 3.45583 47.2507 3.24783 46.748 3.25H5.252C4.7515 3.25 4.29217 3.458 3.874 3.874C3.45583 4.29 3.24783 4.74933 3.25 5.252V46.7512C3.25 47.2496 3.458 47.7078 3.874 48.126C4.29 48.5442 4.74825 48.7522 5.24875 48.75" fill="white"/>
</svg>
