<svg width="63" height="63" viewBox="0 0 63 63" fill="none" xmlns="http://www.w3.org/2000/svg">
<path d="M10.5 10.5H21.0263V5.25H5.25V21H10.5V10.5ZM10.5 42H5.25V57.75H21.0263V52.5H10.5V42ZM52.5 52.5H42V57.75H57.75V42H52.5V52.5ZM42 10.5H52.5V21H57.75V5.25H42V10.5Z" fill="white"/>
<path d="M13.125 28.875H28.875V13.125H13.125V28.875ZM18.375 18.375H23.625V23.625H18.375V18.375ZM13.125 49.875H28.875V34.125H13.125V49.875ZM18.375 39.375H23.625V44.625H18.375V39.375ZM49.875 13.125H34.125V28.875H49.875V13.125ZM44.625 23.625H39.375V18.375H44.625V23.625ZM34.1513 34.125H39.4013V39.375H34.1513V34.125ZM39.4013 39.375H44.6513V44.625H39.4013V39.375ZM44.6513 44.625H49.9013V49.875H44.6513V44.625ZM44.6513 34.125H49.9013V39.375H44.6513V34.125Z" fill="white"/>
</svg>
