<svg width="59" height="38" viewBox="0 0 59 38" fill="none" xmlns="http://www.w3.org/2000/svg">
<mask id="mask0_2203_11" style="mask-type:luminance" maskUnits="userSpaceOnUse" x="0" y="13" width="30" height="25">
<path d="M0.595703 13.7599H29.7865V37.5531H0.595703V13.7599Z" fill="white"/>
</mask>
<g mask="url(#mask0_2203_11)">
<path d="M28.98 38.0438C29.0018 38.0656 29.0127 38.0874 29.0345 38.0983C23.1026 32.6025 11.9257 31.9156 10.6826 31.861C10.6063 31.861 10.5517 31.8065 10.519 31.7302C7.17141 22.8432 2.17723 17.62 0.748768 16.257C0.617916 16.1261 0.683342 15.8753 0.857811 15.8644C1.5993 15.8317 3.12591 15.7881 5.1432 15.908C6.98603 18.7213 9.40679 23.1921 11.2714 29.3094C11.4895 30.0291 12.0456 30.5089 12.689 30.5525C13.8775 30.6288 24.4329 31.4467 28.98 38.0438Z" fill="white"/>
</g>
<mask id="mask1_2203_11" style="mask-type:luminance" maskUnits="userSpaceOnUse" x="29" y="13" width="30" height="25">
<path d="M29.7881 13.7599H58.8372V37.553H29.7881V13.7599Z" fill="white"/>
</mask>
<g mask="url(#mask1_2203_11)">
<path d="M59.5035 16.2569C58.086 17.62 53.0918 22.8431 49.7333 31.7302C49.7115 31.8065 49.646 31.861 49.5697 31.861C48.3266 31.9155 37.1497 32.6025 31.2178 38.0983C31.2396 38.0874 31.2614 38.0656 31.2723 38.0437C35.8303 31.4466 46.3748 30.6288 47.5633 30.5525C48.2067 30.5198 48.7628 30.0291 48.9809 29.3094C50.8455 23.1921 53.2663 18.7213 55.1091 15.908C57.1264 15.7881 58.653 15.8317 59.3945 15.8644C59.569 15.8753 59.6344 16.1261 59.5035 16.2569Z" fill="white"/>
</g>
<path d="M28.5106 35.1214C23.1129 29.6911 13.9097 28.9605 12.7647 28.895C12.6884 28.895 12.623 28.8405 12.6012 28.7533C10.9219 23.2139 8.76287 18.9612 6.97456 16.0389C5.54609 13.6944 4.34662 12.2005 3.82322 11.5681C3.70327 11.4372 3.7796 11.2083 3.94317 11.1974C4.27029 11.1755 4.78279 11.1646 5.43705 11.1646C7.92323 11.1646 12.4921 11.4482 17.3555 13.171C17.9443 13.7708 18.5222 14.3923 19.0783 15.0466C25.1629 22.1562 27.6273 30.9451 28.5106 35.1214Z" fill="white"/>
<path d="M56.4375 11.5681C55.9032 12.2005 54.7037 13.6944 53.2753 16.0389C51.487 18.9612 49.3388 23.2139 47.6486 28.7533C47.6268 28.8405 47.5614 28.895 47.496 28.895C46.351 28.9605 37.1478 29.6802 31.7393 35.1214C32.6225 30.9341 35.0978 22.1562 41.1715 15.0466C41.7276 14.3923 42.3055 13.7708 42.8944 13.1819C47.7577 11.4482 52.3375 11.1646 54.8128 11.1646C55.467 11.1646 55.9795 11.1755 56.3067 11.1974C56.4702 11.2083 56.5466 11.4372 56.4375 11.5681Z" fill="white"/>
<mask id="mask2_2203_11" style="mask-type:luminance" maskUnits="userSpaceOnUse" x="10" y="5" width="40" height="33">
<path d="M10.2471 5.38538H49.3281V37.5531H10.2471V5.38538Z" fill="white"/>
</mask>
<g mask="url(#mask2_2203_11)">
<path d="M48.7172 7.26091C45.3369 9.13645 42.5454 11.579 40.2555 14.2615C32.5352 23.3011 30.4634 35.0451 30.169 37.0079C30.1363 37.1823 30.1254 37.2805 30.1254 37.2805C30.1254 37.2805 30.1145 37.1823 30.0818 37.0079C29.7873 35.0451 27.7155 23.3011 19.9953 14.2615C17.7054 11.579 14.9248 9.13645 11.5335 7.26091C11.4899 7.2391 11.5117 7.17368 11.5554 7.17368C11.5554 7.17368 11.5554 7.17368 11.5663 7.17368C13.5399 7.56623 25.6328 10.2269 30.1254 17.7399C34.618 10.2269 46.7108 7.56623 48.6845 7.17368C48.6954 7.17368 48.6954 7.17368 48.6954 7.17368C48.739 7.17368 48.7608 7.2391 48.7172 7.26091Z" fill="white"/>
</g>
<mask id="mask3_2203_11" style="mask-type:luminance" maskUnits="userSpaceOnUse" x="24" y="0" width="15" height="14">
<path d="M24.2041 0.107727H38.1616V13.7599H24.2041V0.107727Z" fill="white"/>
</mask>
<g mask="url(#mask3_2203_11)">
<path d="M35.6546 5.63621C35.6546 8.68942 33.1793 11.1647 30.1261 11.1647C27.0729 11.1647 24.5977 8.68942 24.5977 5.63621C24.5977 2.583 27.0729 0.107727 30.1261 0.107727C33.1793 0.107727 35.6546 2.583 35.6546 5.63621Z" fill="white"/>
</g>
</svg>
