<svg width="18" height="20" viewBox="0 0 18 20" fill="none" xmlns="http://www.w3.org/2000/svg">
<path d="M9.00346 7.37988C8.36838 7.37988 7.77366 7.62621 7.32337 8.0764C6.87521 8.52659 6.6267 9.12117 6.6267 9.75611C6.6267 10.391 6.87521 10.9856 7.32337 11.4358C7.77366 11.8839 8.36838 12.1323 9.00346 12.1323C9.63853 12.1323 10.2333 11.8839 10.6835 11.4358C11.1317 10.9856 11.3802 10.391 11.3802 9.75611C11.3802 9.12117 11.1317 8.52659 10.6835 8.0764C10.4636 7.85482 10.2018 7.67915 9.91341 7.55958C9.62499 7.44001 9.31568 7.37893 9.00346 7.37988ZM17.7607 12.3808L16.3716 11.1937C16.4375 10.7903 16.4714 10.3783 16.4714 9.96846C16.4714 9.55862 16.4375 9.14453 16.3716 8.74319L17.7607 7.55613C17.8656 7.46632 17.9408 7.3467 17.976 7.21318C18.0113 7.07966 18.0051 6.93856 17.9582 6.80865L17.9391 6.75344C17.5568 5.68465 16.984 4.69395 16.2484 3.82934L16.2102 3.78475C16.1209 3.67974 16.0018 3.60426 15.8687 3.56825C15.7356 3.53224 15.5948 3.53738 15.4647 3.58301L13.74 4.19671C13.1028 3.67432 12.3934 3.26236 11.6245 2.97568L11.291 1.17281C11.2658 1.03699 11.1999 0.912045 11.1021 0.814565C11.0042 0.717085 10.879 0.651688 10.743 0.627062L10.6857 0.616445C9.58118 0.416833 8.41723 0.416833 7.31275 0.616445L7.2554 0.627062C7.11946 0.651688 6.99423 0.717085 6.89635 0.814565C6.79847 0.912045 6.73257 1.03699 6.70741 1.17281L6.37182 2.98418C5.6102 3.27313 4.90071 3.68409 4.27118 4.20096L2.53375 3.58301C2.40368 3.53702 2.2627 3.53169 2.12954 3.56772C1.99637 3.60376 1.87733 3.67945 1.78822 3.78475L1.74999 3.82934C1.01569 4.69486 0.443017 5.68532 0.0592832 6.75344L0.0401672 6.80865C-0.0554129 7.07409 0.0231752 7.37139 0.237699 7.55613L1.64379 8.75593C1.57794 9.15515 1.54608 9.56287 1.54608 9.96634C1.54608 10.3741 1.57794 10.7818 1.64379 11.1768L0.241947 12.3765C0.137013 12.4664 0.0619094 12.586 0.0266245 12.7195C-0.00866046 12.853 -0.00245526 12.9941 0.0444151 13.124L0.0635312 13.1792C0.447976 14.2474 1.01508 15.2348 1.75424 16.1033L1.79247 16.1479C1.88179 16.2529 2.00084 16.3284 2.13393 16.3644C2.26701 16.4004 2.40789 16.3953 2.53799 16.3497L4.27543 15.7317C4.90838 16.252 5.61355 16.6639 6.37606 16.9485L6.71166 18.7599C6.73682 18.8957 6.80271 19.0206 6.90059 19.1181C6.99848 19.2156 7.12371 19.281 7.25965 19.3056L7.317 19.3162C8.43234 19.5169 9.57457 19.5169 10.6899 19.3162L10.7473 19.3056C10.8832 19.281 11.0084 19.2156 11.1063 19.1181C11.2042 19.0206 11.2701 18.8957 11.2953 18.7599L11.6287 16.957C12.3976 16.6682 13.107 16.2584 13.7442 15.736L15.4689 16.3497C15.599 16.3957 15.74 16.401 15.8731 16.365C16.0063 16.3289 16.1253 16.2532 16.2144 16.1479L16.2527 16.1033C16.9918 15.2306 17.5589 14.2474 17.9434 13.1792L17.9625 13.124C18.0538 12.8607 17.9752 12.5655 17.7607 12.3808ZM9.00346 13.4893C6.94105 13.4893 5.26946 11.8181 5.26946 9.75611C5.26946 7.69416 6.94105 6.02295 9.00346 6.02295C11.0659 6.02295 12.7374 7.69416 12.7374 9.75611C12.7374 11.8181 11.0659 13.4893 9.00346 13.4893Z" fill="white" fill-opacity="1"/>
</svg>
