<svg width="21" height="22" viewBox="0 0 21 22" fill="none" xmlns="http://www.w3.org/2000/svg">
<path d="M15.5677 8.10696H11.1359V14.2566C11.1359 14.4366 11.0641 14.6092 10.9362 14.7364C10.8084 14.8637 10.6349 14.9352 10.4541 14.9352C10.2733 14.9352 10.0998 14.8637 9.97198 14.7364C9.84412 14.6092 9.77228 14.4366 9.77228 14.2566V8.10696H5.34047C4.70777 8.10763 4.10118 8.35808 3.6538 8.80334C3.20642 9.2486 2.95478 9.85231 2.9541 10.482V18.625C2.95478 19.2547 3.20642 19.8584 3.6538 20.3037C4.10118 20.7489 4.70777 20.9994 5.34047 21H15.5677C16.2004 20.9994 16.807 20.7489 17.2544 20.3037C17.7018 19.8584 17.9534 19.2547 17.9541 18.625V10.482C17.9534 9.85231 17.7018 9.2486 17.2544 8.80334C16.807 8.35808 16.2004 8.10763 15.5677 8.10696ZM11.1359 4.31665L13.3812 6.55089C13.5101 6.67277 13.6818 6.73972 13.8596 6.73745C14.0374 6.73519 14.2072 6.66389 14.333 6.53876C14.4587 6.41363 14.5303 6.24456 14.5326 6.06761C14.5349 5.89067 14.4676 5.71983 14.3452 5.59154L10.9361 2.19863C10.8082 2.07146 10.6349 2.00003 10.4541 2.00003C10.2733 2.00003 10.1 2.07146 9.97214 2.19863L6.56305 5.59154C6.44058 5.71983 6.37332 5.89067 6.37559 6.06761C6.37787 6.24456 6.44951 6.41363 6.57524 6.53876C6.70096 6.66389 6.87083 6.73519 7.04863 6.73745C7.22642 6.73972 7.39807 6.67277 7.52697 6.55089L9.77228 4.31665V8.10696H11.1359V4.31665Z" fill="white" fill-opacity="0.5"/>
</svg>
