<svg width="26" height="32" viewBox="0 0 26 32" fill="none" xmlns="http://www.w3.org/2000/svg">
<path d="M19 11.3846H22C22.7957 11.3846 23.5587 11.6885 24.1213 12.2295C24.6839 12.7705 25 13.5042 25 14.2692V28.1154C25 28.8804 24.6839 29.6141 24.1213 30.1551C23.5587 30.6961 22.7957 31 22 31H4C3.20435 31 2.44129 30.6961 1.87868 30.1551C1.31607 29.6141 1 28.8804 1 28.1154V14.2692C1 13.5042 1.31607 12.7705 1.87868 12.2295C2.44129 11.6885 3.20435 11.3846 4 11.3846H7M19 6.76923L13 1M13 1L7 6.76923M13 1V20.6875" stroke="black" stroke-width="2" stroke-linecap="round" stroke-linejoin="round"/>
</svg>
