<svg width="121" height="42" viewBox="0 0 121 42" fill="none" xmlns="http://www.w3.org/2000/svg">
<path d="M120.791 0.791672L112.627 11.3257H33.5337C32.3633 11.2087 29.9873 11.5715 29.8468 13.9592C29.7063 16.3469 32.2462 16.9439 33.5337 16.9439H56.4452C59.6932 16.9439 71.1929 16.3294 71.8074 28.8824C72.299 38.9249 61.7708 41.5525 56.4452 41.611H16.3281L24.4042 31.2526H55.8307C57.206 31.3989 59.9566 30.9892 59.9566 28.1802C59.9566 25.3711 57.206 24.7859 55.8307 24.8444H32.5681C24.6676 24.4932 17.9082 22.6498 17.9082 12.5547C17.9082 3.54809 27.4474 0.967239 32.5681 0.791672H120.791Z" fill="white"/>
<path d="M93.2267 16.2416L85.9406 25.1078H107.009V31.2526H93.2267C77.4958 31.4633 78.362 21.3331 80.7614 16.2416H67.6816C76.8814 20.3148 75.3188 30.8722 73.3876 35.6418C79.708 40.2065 86.0869 41.2892 88.4864 41.2599H119.386V16.2416H93.2267Z" fill="white"/>
<path d="M0 0.879456H12.5531V4.47858L0 15.7149V0.879456Z" fill="white"/>
<path d="M0 41.611V21.333L12.4653 9.92116V41.611H0Z" fill="white"/>
</svg>
