<svg width="30" height="24" viewBox="0 0 30 24" fill="none" xmlns="http://www.w3.org/2000/svg">
<path d="M30 2.84906C28.8765 3.33808 27.685 3.65924 26.4651 3.80191C27.7499 3.04475 28.7112 1.85384 29.17 0.45101C27.9632 1.15768 26.6402 1.65293 25.2627 1.92083C24.3364 0.94565 23.1087 0.298907 21.7704 0.0811439C20.432 -0.136619 19.058 0.0868006 17.8621 0.716669C16.6661 1.34654 15.7151 2.34756 15.1569 3.56412C14.5987 4.78068 14.4647 6.14462 14.7756 7.44388C12.3281 7.32339 9.93373 6.69771 7.74796 5.60749C5.5622 4.51727 3.63391 2.98688 2.0883 1.11569C1.54127 2.04023 1.2538 3.09122 1.25533 4.16104C1.25533 6.26078 2.3429 8.1158 3.99264 9.20187C3.01547 9.17155 2.05982 8.91188 1.2053 8.44452V8.51837C1.20525 9.91705 1.69689 11.2727 2.59681 12.3554C3.49673 13.438 4.74954 14.1811 6.14275 14.4585C5.23568 14.7006 4.28446 14.7363 3.3613 14.5627C3.75412 15.7667 4.51981 16.8196 5.55114 17.5739C6.58246 18.3283 7.82775 18.7463 9.11258 18.7695C7.8357 19.7563 6.37364 20.4857 4.81002 20.9161C3.2464 21.3464 1.6119 21.4693 0 21.2776C2.81342 23.0578 6.08845 24.003 9.43341 24C20.7564 24 26.9463 14.7713 26.9463 6.76762C26.9463 6.50696 26.9404 6.24341 26.9286 5.9842C28.133 5.12744 29.1726 4.06628 29.9985 2.85051" fill="white"/>
</svg>
