<svg width="28" height="28" viewBox="0 0 28 28" fill="none" xmlns="http://www.w3.org/2000/svg">
<g clip-path="url(#clip0_291_250)">
<path d="M14 28C6.2684 28 0 21.7314 0 13.9996C0 6.26857 6.2684 0 14 0C21.7316 0 27.9993 6.26857 27.9993 13.9996C28 21.7329 21.7316 28 14 28Z" fill="#C7E2FF"/>
<path d="M6.54199 18.6865C7.89631 19.5561 9.50442 20.063 11.2332 20.063C16.916 20.063 20.1264 15.2628 19.9329 10.9584C20.531 10.5273 21.0496 9.98882 21.4593 9.37455C20.9105 9.61805 20.3198 9.78284 19.7012 9.8564C20.3323 9.47827 20.8186 8.87797 21.0459 8.16291C20.4545 8.51382 19.7997 8.76762 19.1031 8.90593C18.5433 8.31004 17.7488 7.93927 16.8682 7.93927C14.8923 7.93927 13.4416 9.78284 13.8874 11.697C11.3435 11.5698 9.08805 10.3508 7.57925 8.49911C6.7774 9.87553 7.16361 11.6742 8.52602 12.5857C8.02358 12.5703 7.55203 12.432 7.1386 12.2024C7.10549 13.6215 8.12215 14.9472 9.59417 15.2429C9.16235 15.3591 8.69007 15.3864 8.2119 15.2944C8.60032 16.5112 9.73026 17.3947 11.0713 17.4212C9.78617 18.4291 8.16555 18.8793 6.54199 18.6865Z" fill="white"/>
</g>
<defs>
<clipPath id="clip0_291_250">
<rect width="28" height="28" fill="white"/>
</clipPath>
</defs>
</svg>
