<svg width="36" height="31" viewBox="0 0 36 31" fill="none" xmlns="http://www.w3.org/2000/svg">
<path d="M36 3.71002C34.6519 4.3224 33.2221 4.72436 31.7579 4.90255C33.283 3.96525 34.454 2.48101 35.0054 0.712559C33.5556 1.59475 31.9694 2.2163 30.3154 2.55037C28.968 1.07854 27.0487 0.158691 24.9242 0.158691C20.8453 0.158691 17.5382 3.54967 17.5382 7.73202C17.5382 8.32568 17.6036 8.90363 17.7294 9.45808C11.5912 9.14214 6.14897 6.12708 2.50608 1.54502C1.87045 2.66357 1.50623 3.96468 1.50623 5.35245C1.50623 7.98004 2.81025 10.298 4.79194 11.6562C3.61905 11.6186 2.47197 11.2937 1.44647 10.7089C1.44605 10.7406 1.44605 10.7723 1.44605 10.8042C1.44605 14.4736 3.99192 17.5347 7.37058 18.2304C6.28297 18.5337 5.14213 18.5781 4.03523 18.3602C4.97503 21.369 7.70273 23.5586 10.9346 23.6198C8.40684 25.651 5.22211 26.8619 1.76189 26.8619C1.16564 26.8619 0.577828 26.826 0 26.756C3.26855 28.9049 7.15078 30.1587 11.3217 30.1587C24.9071 30.1587 32.3359 18.6183 32.3359 8.61033C32.3359 8.28185 32.3288 7.95524 32.3145 7.6305C33.7605 6.55865 35.0085 5.23105 36 3.71002Z" fill="#55ACEE"/>
</svg>
