<svg width="41" height="40" viewBox="0 0 41 40" fill="none" xmlns="http://www.w3.org/2000/svg">
<path d="M34.6279 15.9743C34.1015 15.9743 33.5967 16.1834 33.2245 16.5556C32.8523 16.9278 32.6432 17.4326 32.6432 17.959V24.6674L29.7058 21.73C28.6686 20.701 27.2668 20.1236 25.8058 20.1236C24.3448 20.1236 22.943 20.701 21.9059 21.73L20.5166 23.1391L15.5945 18.1972C14.5573 17.1682 13.1555 16.5908 11.6945 16.5908C10.2335 16.5908 8.83168 17.1682 7.79451 18.1972L4.85713 21.1544V10.0201C4.85713 9.49377 5.06624 8.98895 5.43844 8.61674C5.81065 8.24453 6.31547 8.03543 6.84185 8.03543H22.7196C23.246 8.03543 23.7508 7.82633 24.123 7.45412C24.4952 7.08191 24.7043 6.57709 24.7043 6.05071C24.7043 5.52433 24.4952 5.01951 24.123 4.6473C23.7508 4.2751 23.246 4.06599 22.7196 4.06599H6.84185C5.26271 4.06599 3.74825 4.69331 2.63163 5.80993C1.51501 6.92655 0.887695 8.44101 0.887695 10.0201V34.2734C0.892925 35.7351 1.47591 37.1355 2.50952 38.1691C3.54312 39.2027 4.94349 39.7857 6.40521 39.7909H31.0951C31.6329 39.7866 32.1675 39.7064 32.6829 39.5527C33.8289 39.2313 34.8379 38.5427 35.5549 37.5927C36.2719 36.6426 36.6574 35.4835 36.6523 34.2933V17.959C36.6524 17.695 36.5997 17.4336 36.4975 17.1902C36.3953 16.9468 36.2456 16.7262 36.057 16.5414C35.8685 16.3566 35.645 16.2112 35.3996 16.1138C35.1542 16.0165 34.8919 15.969 34.6279 15.9743ZM6.84185 35.8215C6.31547 35.8215 5.81065 35.6124 5.43844 35.2402C5.06624 34.868 4.85713 34.3631 4.85713 33.8368V26.7513L10.593 21.0155C10.883 20.727 11.2755 20.5651 11.6846 20.5651C12.0936 20.5651 12.4861 20.727 12.7762 21.0155L27.602 35.8215H6.84185ZM32.6432 33.8368C32.6304 34.2211 32.5063 34.5934 32.2859 34.9085L23.315 25.8979L24.7242 24.5086C24.8665 24.3634 25.0363 24.248 25.2237 24.1692C25.4112 24.0905 25.6124 24.0499 25.8158 24.0499C26.0191 24.0499 26.2203 24.0905 26.4078 24.1692C26.5952 24.248 26.7651 24.3634 26.9073 24.5086L32.6432 30.2841V33.8368ZM38.5973 4.06599H36.6126V2.08128C36.6126 1.5549 36.4035 1.05007 36.0313 0.677868C35.6591 0.305661 35.1543 0.0965576 34.6279 0.0965576C34.1015 0.0965576 33.5967 0.305661 33.2245 0.677868C32.8523 1.05007 32.6432 1.5549 32.6432 2.08128V4.06599H30.6585C30.1321 4.06599 29.6273 4.2751 29.2551 4.6473C28.8829 5.01951 28.6737 5.52433 28.6737 6.05071C28.6737 6.57709 28.8829 7.08191 29.2551 7.45412C29.6273 7.82633 30.1321 8.03543 30.6585 8.03543H32.6432V10.0201C32.6432 10.5465 32.8523 11.0513 33.2245 11.4236C33.5967 11.7958 34.1015 12.0049 34.6279 12.0049C35.1543 12.0049 35.6591 11.7958 36.0313 11.4236C36.4035 11.0513 36.6126 10.5465 36.6126 10.0201V8.03543H38.5973C39.1237 8.03543 39.6285 7.82633 40.0007 7.45412C40.373 7.08191 40.5821 6.57709 40.5821 6.05071C40.5821 5.52433 40.373 5.01951 40.0007 4.6473C39.6285 4.2751 39.1237 4.06599 38.5973 4.06599Z" fill="black"/>
</svg>
