<svg width="28" height="28" viewBox="0 0 28 28" fill="none" xmlns="http://www.w3.org/2000/svg">
<mask id="mask0_392_2119" style="mask-type:luminance" maskUnits="userSpaceOnUse" x="0" y="0" width="28" height="28">
<path d="M0 0H27.4098V27.4098H0V0Z" fill="white"/>
</mask>
<g mask="url(#mask0_392_2119)">
<path d="M16.2872 0.202014L15.4649 0.0866041C12.9936 -0.270218 10.4718 0.0827888 8.19343 1.10447C5.91508 2.12615 3.97408 3.77441 2.59672 5.8571C1.13124 7.84789 0.257631 10.212 0.0764291 12.6774C-0.104773 15.1427 0.413796 17.6092 1.57246 19.7928C1.69104 20.0117 1.76486 20.252 1.78963 20.4996C1.8144 20.7473 1.78962 20.9975 1.71672 21.2355C1.12525 23.2696 0.577049 25.3181 0 27.4676L0.721311 27.2512C2.66885 26.7319 4.61639 26.2125 6.56393 25.7364C6.975 25.651 7.40227 25.6912 7.79016 25.8519C9.53746 26.7046 11.447 27.1738 13.3905 27.2278C15.334 27.2819 17.2667 26.9196 19.0586 26.1652C20.8506 25.4109 22.4606 24.282 23.7803 22.8542C25.1001 21.4265 26.0993 19.733 26.7107 17.8873C27.3221 16.0417 27.5316 14.0866 27.3253 12.1533C27.1189 10.22 26.5014 8.35318 25.5141 6.67817C24.5269 5.00317 23.1928 3.5587 21.6014 2.44172C20.01 1.32474 18.1981 0.561089 16.2872 0.202014ZM19.9226 19.1292C19.3983 19.5986 18.7589 19.9207 18.0697 20.0626C17.3804 20.2045 16.6658 20.1612 15.9987 19.9371C12.9758 19.0859 10.3531 17.1892 8.59803 14.585C7.92762 13.6639 7.38868 12.654 6.99672 11.5843C6.78444 10.9637 6.74616 10.2967 6.88603 9.65586C7.02591 9.015 7.33859 8.42466 7.79016 7.9489C8.01 7.66833 8.30924 7.46047 8.64889 7.3524C8.98855 7.24433 9.35288 7.24105 9.69443 7.343C9.98295 7.41513 10.1849 7.83349 10.4446 8.15087C10.6552 8.74667 10.9019 9.32949 11.1803 9.89644C11.3916 10.1857 11.4798 10.5468 11.4257 10.9008C11.3717 11.2549 11.1797 11.5732 10.8918 11.7863C10.2426 12.3633 10.3436 12.8394 10.8052 13.4886C11.8258 14.9588 13.234 16.1174 14.8734 16.8355C15.3351 17.0374 15.6813 17.0807 15.9843 16.6046C16.1141 16.4171 16.2872 16.2584 16.4315 16.0853C17.2682 15.0322 17.0085 15.0466 18.3357 15.6237C18.7584 15.8011 19.1681 16.0088 19.562 16.244C19.9515 16.4748 20.5429 16.72 20.6295 17.0663C20.7128 17.4419 20.6909 17.8332 20.5662 18.1972C20.4414 18.5611 20.2188 18.8836 19.9226 19.1292Z" fill="white"/>
</g>
</svg>
