<svg width="31" height="31" viewBox="0 0 31 31" fill="none" xmlns="http://www.w3.org/2000/svg">
<path d="M25.6799 4.51058C24.295 3.07517 22.6454 1.93707 20.8274 1.16267C19.0093 0.388264 17.0592 -0.00694416 15.0907 9.23327e-05C6.84294 9.23327e-05 0.120847 6.89757 0.120847 15.3605C0.120847 18.073 0.815715 20.708 2.11482 23.033L0 31L7.93056 28.861C10.1209 30.0855 12.5832 30.7365 15.0907 30.7365C23.3385 30.7365 30.0606 23.839 30.0606 15.376C30.0606 11.2686 28.5047 7.40907 25.6799 4.51058ZM15.0907 28.1325C12.8551 28.1325 10.6647 27.5125 8.74628 26.35L8.2931 26.071L3.58008 27.342L4.83387 22.63L4.53175 22.1495C3.28967 20.1143 2.63014 17.7619 2.62841 15.3605C2.62841 8.32357 8.21757 2.58858 15.0756 2.58858C18.3989 2.58858 21.5258 3.92158 23.8672 6.33957C25.0266 7.52371 25.9453 8.93219 26.5702 10.4834C27.1952 12.0345 27.5138 13.6976 27.5077 15.376C27.5379 22.413 21.9488 28.1325 15.0907 28.1325ZM21.9186 18.5845C21.5409 18.3985 19.698 17.4685 19.3657 17.329C19.0182 17.205 18.7766 17.143 18.5198 17.515C18.263 17.9025 17.553 18.7705 17.3415 19.0185C17.13 19.282 16.9034 19.313 16.5258 19.1115C16.1481 18.9255 14.9397 18.507 13.5197 17.205C12.4019 16.182 11.6617 14.9265 11.4351 14.539C11.2236 14.1516 11.4049 13.95 11.6013 13.7486C11.7674 13.5781 11.9789 13.2991 12.1602 13.0821C12.3415 12.8651 12.417 12.6946 12.5378 12.4466C12.6587 12.1831 12.5983 11.9661 12.5076 11.7801C12.417 11.5941 11.6617 9.70306 11.3596 8.92807C11.0575 8.18407 10.7402 8.27707 10.5137 8.26157H9.78858C9.53178 8.26157 9.13903 8.35457 8.79159 8.74207C8.45927 9.12957 7.49249 10.0596 7.49249 11.9506C7.49249 13.8416 8.83691 15.6705 9.01818 15.9185C9.19945 16.182 11.6617 20.057 15.4079 21.7155C16.2992 22.1185 16.9941 22.351 17.5379 22.5215C18.4291 22.816 19.2448 22.7695 19.8944 22.6765C20.6195 22.568 22.1149 21.7465 22.4171 20.8475C22.7343 19.9485 22.7343 19.189 22.6285 19.0185C22.5228 18.848 22.2962 18.7705 21.9186 18.5845Z" fill="#153860"/>
</svg>
