<svg width="38" height="39" viewBox="0 0 38 39" fill="none" xmlns="http://www.w3.org/2000/svg">
<path d="M0.809165 19.3239C0.808274 22.4704 1.64916 25.5428 3.24809 28.2509L0.65625 37.5035L10.3407 35.0207C13.0192 36.4465 16.0204 37.1935 19.0702 37.1937H19.0782C29.1461 37.1937 37.3416 29.1835 37.3459 19.338C37.3478 14.5671 35.4493 10.0809 32 6.70568C28.5512 3.33078 23.9645 1.47117 19.0775 1.46899C9.00838 1.46899 0.81347 9.47875 0.809313 19.3239" fill="url(#paint0_linear_378_843)"/>
<path d="M0.158828 19.3182C0.157789 22.5795 1.02867 25.7634 2.68434 28.5697L0 38.1587L10.0301 35.5857C12.7937 37.0599 15.9052 37.8371 19.0714 37.8383H19.0796C29.507 37.8383 37.9955 29.5359 38 19.333C38.0018 14.3883 36.0353 9.73851 32.4633 6.24071C28.8908 2.74334 24.1408 0.815876 19.0796 0.813843C8.65034 0.813843 0.162984 9.11505 0.158828 19.3182ZM6.1321 28.0864L5.75759 27.5048C4.18327 25.0557 3.35231 22.2255 3.3535 19.3193C3.35677 10.8388 10.4111 3.93914 19.0855 3.93914C23.2863 3.94088 27.2341 5.54303 30.2035 8.44991C33.1727 11.3571 34.8065 15.2216 34.8055 19.3318C34.8016 27.8124 27.7471 34.7129 19.0796 34.7129H19.0733C16.2511 34.7114 13.4832 33.9699 11.0693 32.5686L10.4948 32.2353L4.54278 33.7621L6.1321 28.0864Z" fill="url(#paint1_linear_378_843)"/>
<path d="M14.6576 11.4632C14.3074 10.6818 13.9389 10.666 13.6058 10.6523C13.3331 10.6405 13.0213 10.6414 12.7099 10.6414C12.3981 10.6414 11.8916 10.7592 11.4634 11.2285C11.0348 11.6982 9.82715 12.8334 9.82715 15.1422C9.82715 17.4511 11.5023 19.6824 11.7359 19.9958C11.9697 20.3086 14.9698 25.1982 19.7213 27.0793C23.6703 28.6425 24.4739 28.3316 25.3309 28.2532C26.1881 28.1751 28.0968 27.1183 28.4862 26.0225C28.8759 24.9268 28.8759 23.9876 28.7591 23.7914C28.6423 23.5958 28.3305 23.4784 27.863 23.2438C27.3954 23.0091 25.0971 21.8738 24.6687 21.7171C24.2401 21.5607 23.9285 21.4826 23.6167 21.9525C23.305 22.4216 22.4097 23.4784 22.1369 23.7914C21.8643 24.1051 21.5915 24.1441 21.1241 23.9094C20.6563 23.6739 19.1508 23.179 17.3647 21.5804C15.975 20.3365 15.0368 18.8004 14.764 18.3305C14.4913 17.8613 14.7348 17.607 14.9692 17.3732C15.1793 17.1629 15.4369 16.8252 15.6708 16.5513C15.9039 16.2772 15.9817 16.0817 16.1376 15.7687C16.2936 15.4554 16.2155 15.1814 16.0989 14.9466C15.9817 14.7119 15.0733 12.391 14.6576 11.4632Z" fill="white"/>
<defs>
<linearGradient id="paint0_linear_378_843" x1="1835.14" y1="3604.92" x2="1835.14" y2="1.46899" gradientUnits="userSpaceOnUse">
<stop stop-color="#1FAF38"/>
<stop offset="1" stop-color="#60D669"/>
</linearGradient>
<linearGradient id="paint1_linear_378_843" x1="1900" y1="3735.3" x2="1900" y2="0.813843" gradientUnits="userSpaceOnUse">
<stop stop-color="#F9F9F9"/>
<stop offset="1" stop-color="white"/>
</linearGradient>
</defs>
</svg>
