<svg width="38" height="28" viewBox="0 0 38 28" fill="none" xmlns="http://www.w3.org/2000/svg">
<path d="M36.5207 5.15823C36.3065 4.34519 35.8886 3.60397 35.3088 3.00838C34.7289 2.41278 34.0072 1.9836 33.2156 1.76356C30.3175 0.951782 18.6538 0.951782 18.6538 0.951782C18.6538 0.951782 6.98946 0.976354 4.0914 1.78813C3.29978 2.00818 2.57809 2.43739 1.99822 3.03301C1.41834 3.62863 1.00051 4.36988 0.786325 5.18295C-0.0902721 10.4716 -0.43032 18.5303 0.810395 23.6074C1.0246 24.4204 1.44245 25.1617 2.02232 25.7573C2.60219 26.3528 3.32386 26.782 4.11547 27.0021C7.01353 27.8139 18.6776 27.8139 18.6776 27.8139C18.6776 27.8139 30.3415 27.8139 33.2394 27.0021C34.031 26.7821 34.7527 26.3529 35.3326 25.7573C35.9125 25.1617 36.3304 24.4205 36.5446 23.6074C37.4692 18.3113 37.7541 10.2575 36.5207 5.15823Z" fill="#FF0000"/>
<path d="M15.0688 19.9517L24.8964 14.3827L15.0688 8.81378V19.9517Z" fill="white"/>
</svg>
