<svg width="34" height="27" viewBox="0 0 34 27" fill="none" xmlns="http://www.w3.org/2000/svg">
<path fill-rule="evenodd" clip-rule="evenodd" d="M17 0C18.4535 0 19.9444 0.0371252 21.3894 0.0978751L23.0962 0.178875L24.7299 0.275063L26.2599 0.378L27.6573 0.486C29.1738 0.601219 30.6008 1.2436 31.6872 2.30013C32.7736 3.35666 33.4499 4.75966 33.5971 6.26231L33.6651 6.9795L33.7926 8.51512C33.9116 10.1064 34 11.8412 34 13.5C34 15.1588 33.9116 16.8936 33.7926 18.4849L33.6651 20.0205C33.643 20.2669 33.6209 20.5048 33.5971 20.7377C33.4499 22.2406 32.7733 23.6438 31.6866 24.7004C30.5998 25.757 29.1724 26.3992 27.6556 26.514L26.2616 26.6203L24.7316 26.7249L23.0962 26.8211L21.3894 26.9021C19.9271 26.9652 18.4637 26.9978 17 27C15.5363 26.9978 14.0729 26.9652 12.6106 26.9021L10.9038 26.8211L9.2701 26.7249L7.7401 26.6203L6.3427 26.514C4.82622 26.3988 3.39924 25.7564 2.3128 24.6999C1.22637 23.6433 0.550076 22.2403 0.4029 20.7377L0.3349 20.0205L0.2074 18.4849C0.0774138 16.8263 0.00823483 15.1636 0 13.5C0 11.8412 0.0884 10.1064 0.2074 8.51512L0.3349 6.9795C0.357 6.73312 0.3791 6.49519 0.4029 6.26231C0.550019 4.75993 1.22607 3.35714 2.31216 2.30064C3.39824 1.24415 4.82482 0.601598 6.341 0.486L7.7367 0.378L9.2667 0.275063L10.9021 0.178875L12.6089 0.0978751C14.0718 0.0348181 15.5358 0.00218579 17 0ZM13.6 9.40781V17.5922C13.6 18.3718 14.45 18.8578 15.13 18.4697L22.27 14.3775C22.4254 14.2887 22.5544 14.1609 22.6442 14.0068C22.7339 13.8528 22.7811 13.678 22.7811 13.5C22.7811 13.322 22.7339 13.1472 22.6442 12.9932C22.5544 12.8391 22.4254 12.7113 22.27 12.6225L15.13 8.532C14.9749 8.44311 14.7989 8.39632 14.6198 8.39635C14.4407 8.39638 14.2648 8.44322 14.1097 8.53216C13.9546 8.6211 13.8259 8.74901 13.7364 8.90302C13.6469 9.05703 13.5999 9.23171 13.6 9.4095V9.40781Z" fill="#153860"/>
</svg>
